# Blender v2.78 (sub 0) OBJ File: 'anisotropy.blend'
# www.blender.org
o cylinder_1_Cylinder.003
v -0.733834 0.800000 1.042088
v -0.708718 0.799211 1.042088
v -0.683701 0.796846 1.042088
v -0.658882 0.792915 1.042088
v -0.634358 0.787433 1.042088
v -0.610228 0.780423 1.042088
v -0.586585 0.771911 1.042088
v -0.563523 0.761931 1.042088
v -0.541133 0.750523 1.042088
v -0.519504 0.737731 1.042088
v -0.498720 0.723607 1.042088
v -0.478865 0.708205 1.042088
v -0.460016 0.691587 1.042088
v -0.442247 0.673819 1.042088
v -0.425629 0.654970 1.042088
v -0.410228 0.635114 1.042088
v -0.396103 0.614331 1.042088
v -0.383312 0.592701 1.042088
v -0.371904 0.570312 1.042088
v -0.361924 0.547250 1.042088
v -0.353412 0.523607 1.042088
v -0.346401 0.499476 1.042088
v -0.340920 0.474952 1.042088
v -0.336989 0.450133 1.042088
v -0.334624 0.425116 1.042088
v -0.333834 0.400000 1.042088
v -0.334624 0.374884 1.042088
v -0.336989 0.349866 1.042088
v -0.340920 0.325047 1.042088
v -0.346401 0.300524 1.042088
v -0.353412 0.276393 1.042088
v -0.361924 0.252750 1.042088
v -0.371904 0.229688 1.042088
v -0.383312 0.207298 1.042088
v -0.396103 0.185669 1.042088
v -0.410228 0.164886 1.042088
v -0.425629 0.145030 1.042088
v -0.442247 0.126181 1.042088
v -0.460016 0.108412 1.042088
v -0.478865 0.091794 1.042088
v -0.498721 0.076393 1.042088
v -0.519504 0.062269 1.042088
v -0.541133 0.049477 1.042088
v -0.563523 0.038069 1.042088
v -0.586585 0.028089 1.042088
v -0.610228 0.019577 1.042088
v -0.634359 0.012567 1.042088
v -0.658882 0.007085 1.042088
v -0.683702 0.003154 1.042088
v -0.708719 0.000789 1.042088
v -0.733835 -0.000000 1.042088
v -0.758951 0.000789 1.042088
v -0.783968 0.003154 1.042088
v -0.808787 0.007085 1.042088
v -0.833311 0.012567 1.042088
v -0.857442 0.019578 1.042088
v -0.881085 0.028090 1.042088
v -0.904147 0.038069 1.042088
v -0.926536 0.049478 1.042088
v -0.948166 0.062269 1.042088
v -0.968949 0.076393 1.042088
v -0.988804 0.091795 1.042088
v -1.007654 0.108413 1.042088
v -1.025422 0.126182 1.042088
v -1.042040 0.145031 1.042088
v -1.057441 0.164886 1.042088
v -1.071566 0.185670 1.042088
v -1.084357 0.207299 1.042088
v -1.095765 0.229689 1.042088
v -1.105745 0.252751 1.042088
v -1.114257 0.276394 1.042088
v -1.121268 0.300525 1.042088
v -1.126750 0.325048 1.042088
v -1.130680 0.349867 1.042088
v -1.133045 0.374884 1.042088
v -1.133834 0.400001 1.042088
v -1.133045 0.425117 1.042088
v -1.130680 0.450134 1.042088
v -1.126749 0.474953 1.042088
v -1.121268 0.499477 1.042088
v -1.114257 0.523607 1.042088
v -1.105745 0.547250 1.042088
v -1.095765 0.570312 1.042088
v -1.084357 0.592702 1.042088
v -1.071565 0.614331 1.042088
v -1.057441 0.635115 1.042088
v -1.042039 0.654970 1.042088
v -1.025421 0.673819 1.042088
v -1.007653 0.691588 1.042088
v -0.988804 0.708206 1.042088
v -0.968948 0.723607 1.042088
v -0.948165 0.737732 1.042088
v -0.926535 0.750523 1.042088
v -0.904145 0.761931 1.042088
v -0.881084 0.771911 1.042088
v -0.857440 0.780423 1.042088
v -0.833310 0.787433 1.042088
v -0.808786 0.792915 1.042088
v -0.783967 0.796846 1.042088
v -0.758950 0.799211 1.042088
v -0.733834 0.800000 -0.857912
v -0.708718 0.799211 -0.857912
v -0.683701 0.796846 -0.857912
v -0.658882 0.792915 -0.857912
v -0.634358 0.787433 -0.857912
v -0.610228 0.780423 -0.857912
v -0.586585 0.771911 -0.857912
v -0.563523 0.761931 -0.857912
v -0.541133 0.750523 -0.857912
v -0.519504 0.737731 -0.857912
v -0.498720 0.723607 -0.857912
v -0.478865 0.708205 -0.857912
v -0.460016 0.691587 -0.857912
v -0.442247 0.673819 -0.857912
v -0.425629 0.654970 -0.857912
v -0.410228 0.635114 -0.857912
v -0.396103 0.614331 -0.857912
v -0.383312 0.592701 -0.857912
v -0.371904 0.570312 -0.857912
v -0.361924 0.547250 -0.857912
v -0.353412 0.523607 -0.857912
v -0.346401 0.499476 -0.857912
v -0.340920 0.474952 -0.857912
v -0.336989 0.450133 -0.857912
v -0.334624 0.425116 -0.857912
v -0.333834 0.400000 -0.857912
v -0.334624 0.374884 -0.857912
v -0.336989 0.349867 -0.857912
v -0.340920 0.325047 -0.857912
v -0.346401 0.300524 -0.857912
v -0.353412 0.276393 -0.857912
v -0.361924 0.252750 -0.857912
v -0.371904 0.229688 -0.857912
v -0.383312 0.207298 -0.857912
v -0.396103 0.185669 -0.857912
v -0.410228 0.164886 -0.857912
v -0.425629 0.145030 -0.857912
v -0.442247 0.126181 -0.857912
v -0.460016 0.108412 -0.857912
v -0.478865 0.091795 -0.857912
v -0.498721 0.076393 -0.857912
v -0.519504 0.062269 -0.857912
v -0.541133 0.049477 -0.857912
v -0.563523 0.038069 -0.857912
v -0.586585 0.028089 -0.857912
v -0.610228 0.019577 -0.857912
v -0.634359 0.012567 -0.857912
v -0.658882 0.007085 -0.857912
v -0.683702 0.003154 -0.857912
v -0.708719 0.000789 -0.857912
v -0.733835 0.000000 -0.857912
v -0.758951 0.000789 -0.857912
v -0.783968 0.003154 -0.857912
v -0.808787 0.007085 -0.857912
v -0.833311 0.012567 -0.857912
v -0.857442 0.019578 -0.857912
v -0.881085 0.028090 -0.857912
v -0.904147 0.038069 -0.857912
v -0.926536 0.049478 -0.857912
v -0.948166 0.062269 -0.857912
v -0.968949 0.076394 -0.857912
v -0.988804 0.091795 -0.857912
v -1.007654 0.108413 -0.857912
v -1.025422 0.126182 -0.857912
v -1.042040 0.145031 -0.857912
v -1.057441 0.164886 -0.857912
v -1.071566 0.185670 -0.857912
v -1.084357 0.207299 -0.857912
v -1.095765 0.229689 -0.857912
v -1.105745 0.252751 -0.857912
v -1.114257 0.276394 -0.857912
v -1.121268 0.300525 -0.857912
v -1.126750 0.325048 -0.857912
v -1.130680 0.349867 -0.857912
v -1.133045 0.374884 -0.857912
v -1.133834 0.400001 -0.857912
v -1.133045 0.425117 -0.857912
v -1.130680 0.450134 -0.857912
v -1.126749 0.474953 -0.857912
v -1.121268 0.499477 -0.857912
v -1.114257 0.523607 -0.857912
v -1.105745 0.547250 -0.857912
v -1.095765 0.570312 -0.857912
v -1.084357 0.592702 -0.857912
v -1.071565 0.614331 -0.857912
v -1.057441 0.635115 -0.857912
v -1.042039 0.654970 -0.857912
v -1.025421 0.673819 -0.857912
v -1.007653 0.691588 -0.857912
v -0.988804 0.708206 -0.857912
v -0.968948 0.723607 -0.857912
v -0.948165 0.737732 -0.857912
v -0.926535 0.750523 -0.857912
v -0.904145 0.761931 -0.857912
v -0.881084 0.771911 -0.857912
v -0.857440 0.780423 -0.857912
v -0.833310 0.787434 -0.857912
v -0.808786 0.792915 -0.857912
v -0.783967 0.796846 -0.857912
v -0.758950 0.799211 -0.857912
vt 0.6100 0.0001
vt 0.6200 0.3025
vt 0.6100 0.3025
vt 0.6400 0.0001
vt 0.6500 0.3025
vt 0.6400 0.3025
vt 0.6500 0.0001
vt 0.6600 0.3025
vt 0.6600 0.0001
vt 0.6700 0.3025
vt 0.6700 0.0001
vt 0.6800 0.3025
vt 0.6800 0.0001
vt 0.6900 0.3025
vt 0.6900 0.0001
vt 0.7000 0.3025
vt 0.7000 0.0001
vt 0.7100 0.3025
vt 0.7100 0.0001
vt 0.7200 0.3025
vt 0.7200 0.0001
vt 0.7300 0.3025
vt 0.7300 0.0001
vt 0.7400 0.3025
vt 0.7400 0.0001
vt 0.7500 0.3025
vt 0.7500 0.0001
vt 0.7600 0.3025
vt 0.7600 0.0001
vt 0.7700 0.3025
vt 0.7700 0.0001
vt 0.7800 0.3025
vt 0.7800 0.0001
vt 0.7900 0.3025
vt 0.7900 0.0001
vt 0.8000 0.3025
vt 0.8000 0.0001
vt 0.8100 0.3025
vt 0.8100 0.0001
vt 0.8200 0.3025
vt 0.8200 0.0001
vt 0.8300 0.3025
vt 0.8300 0.0001
vt 0.8400 0.3025
vt 0.8400 0.0001
vt 0.8500 0.3025
vt 0.8500 0.0001
vt 0.8600 0.3025
vt 0.8600 0.0001
vt 0.8700 0.3025
vt 0.8700 0.0001
vt 0.8800 0.3025
vt 0.8800 0.0001
vt 0.8900 0.3025
vt 0.8900 0.0001
vt 0.9000 0.3025
vt 0.9000 0.0001
vt 0.9100 0.3025
vt 0.9100 0.0001
vt 0.9200 0.3025
vt 0.9200 0.0001
vt 0.9300 0.3025
vt 0.9300 0.0001
vt 0.9400 0.3025
vt 0.9400 0.0001
vt 0.9500 0.3025
vt 0.9499 0.0001
vt 0.9599 0.3025
vt 0.9599 0.0001
vt 0.9699 0.3025
vt 0.9699 0.0001
vt 0.9799 0.3025
vt 0.9799 0.0001
vt 0.9899 0.3025
vt 0.9899 0.0001
vt 0.9999 0.3025
vt 0.0001 0.0001
vt 0.0101 0.3025
vt 0.0001 0.3025
vt 0.0201 0.0001
vt 0.0201 0.3025
vt 0.0301 0.0001
vt 0.0301 0.3025
vt 0.0401 0.3025
vt 0.0401 0.0001
vt 0.0501 0.3025
vt 0.0500 0.0001
vt 0.0601 0.3025
vt 0.0600 0.0001
vt 0.0701 0.3025
vt 0.0700 0.0001
vt 0.0801 0.3025
vt 0.0800 0.0001
vt 0.0901 0.3025
vt 0.0900 0.0001
vt 0.1001 0.3025
vt 0.1000 0.0001
vt 0.1101 0.3025
vt 0.1100 0.0001
vt 0.1200 0.3025
vt 0.1200 0.0001
vt 0.1300 0.3025
vt 0.1300 0.0001
vt 0.1400 0.3025
vt 0.1400 0.0001
vt 0.1500 0.3025
vt 0.1500 0.0001
vt 0.1600 0.3025
vt 0.1600 0.0001
vt 0.1700 0.3025
vt 0.1700 0.0001
vt 0.1800 0.3025
vt 0.1800 0.0001
vt 0.1900 0.3025
vt 0.1900 0.0001
vt 0.2000 0.3025
vt 0.2000 0.0001
vt 0.2100 0.3025
vt 0.2100 0.0001
vt 0.2200 0.3025
vt 0.2200 0.0001
vt 0.2300 0.3025
vt 0.2300 0.0001
vt 0.2400 0.3025
vt 0.2400 0.0001
vt 0.2500 0.3025
vt 0.2500 0.0001
vt 0.2600 0.3025
vt 0.2600 0.0001
vt 0.2700 0.3025
vt 0.2700 0.0001
vt 0.2800 0.3025
vt 0.2800 0.0001
vt 0.2900 0.3025
vt 0.2900 0.0001
vt 0.3000 0.3025
vt 0.3000 0.0001
vt 0.3100 0.3025
vt 0.3100 0.0001
vt 0.3200 0.3025
vt 0.3200 0.0001
vt 0.3300 0.3025
vt 0.3300 0.0001
vt 0.3400 0.3025
vt 0.3400 0.0001
vt 0.3500 0.3025
vt 0.3500 0.0001
vt 0.3600 0.3025
vt 0.3600 0.0001
vt 0.3700 0.3025
vt 0.3700 0.0001
vt 0.3800 0.3025
vt 0.3800 0.0001
vt 0.3900 0.3025
vt 0.4000 0.0001
vt 0.4000 0.3025
vt 0.4100 0.3025
vt 0.4100 0.0001
vt 0.4200 0.3025
vt 0.4200 0.0001
vt 0.4300 0.3025
vt 0.4300 0.0001
vt 0.4400 0.3025
vt 0.4400 0.0001
vt 0.4500 0.3025
vt 0.4500 0.0001
vt 0.4600 0.3025
vt 0.4600 0.0001
vt 0.4700 0.3025
vt 0.4700 0.0001
vt 0.4800 0.3025
vt 0.4800 0.0001
vt 0.4900 0.3025
vt 0.4900 0.0001
vt 0.5000 0.3025
vt 0.5000 0.0001
vt 0.5100 0.3025
vt 0.5200 0.0001
vt 0.5200 0.3025
vt 0.5300 0.3025
vt 0.5300 0.0001
vt 0.5400 0.3025
vt 0.5400 0.0001
vt 0.5500 0.3025
vt 0.5500 0.0001
vt 0.5600 0.3025
vt 0.5600 0.0001
vt 0.5700 0.3025
vt 0.5700 0.0001
vt 0.5800 0.3025
vt 0.5800 0.0001
vt 0.5900 0.3025
vt 0.5900 0.0001
vt 0.6000 0.3025
vt 0.6300 0.0001
vt 0.6300 0.3025
vt 0.6000 0.0001
vt 0.6200 0.0001
vt 0.9999 0.0001
vt 0.0101 0.0001
vt 0.3900 0.0001
vt 0.5100 0.0001
vn 0.0000 1.0000 0.0000
vn 0.0628 0.9980 0.0000
vn 0.1874 0.9823 0.0000
vn 0.2487 0.9686 0.0000
vn 0.3090 0.9510 0.0000
vn 0.3681 0.9297 0.0000
vn 0.3681 0.9298 0.0000
vn 0.4258 0.9048 0.0000
vn 0.4817 0.8763 0.0000
vn 0.5358 0.8443 0.0000
vn 0.5878 0.8090 0.0000
vn 0.6374 0.7705 0.0000
vn 0.6845 0.7290 0.0000
vn 0.7290 0.6845 0.0000
vn 0.7705 0.6374 0.0000
vn 0.8090 0.5878 0.0000
vn 0.8443 0.5358 0.0000
vn 0.8763 0.4817 0.0000
vn 0.9048 0.4258 0.0000
vn 0.9297 0.3681 0.0000
vn 0.9298 0.3681 0.0000
vn 0.9510 0.3090 0.0000
vn 0.9686 0.2487 0.0000
vn 0.9823 0.1874 0.0000
vn 0.9921 0.1253 0.0000
vn 0.9980 0.0628 0.0000
vn 1.0000 0.0000 0.0000
vn 0.9980 -0.0628 0.0000
vn 0.9921 -0.1253 0.0000
vn 0.9823 -0.1874 0.0000
vn 0.9686 -0.2487 0.0000
vn 0.9510 -0.3090 0.0000
vn 0.9297 -0.3681 0.0000
vn 0.9048 -0.4258 0.0000
vn 0.8763 -0.4817 0.0000
vn 0.8443 -0.5358 0.0000
vn 0.8090 -0.5878 0.0000
vn 0.7705 -0.6374 0.0000
vn 0.7290 -0.6845 0.0000
vn 0.6845 -0.7290 0.0000
vn 0.6374 -0.7705 0.0000
vn 0.5878 -0.8090 0.0000
vn 0.5358 -0.8443 0.0000
vn 0.4817 -0.8763 0.0000
vn 0.4258 -0.9048 0.0000
vn 0.3681 -0.9297 0.0000
vn 0.3090 -0.9510 0.0000
vn 0.2487 -0.9686 0.0000
vn 0.1874 -0.9823 0.0000
vn 0.1253 -0.9921 0.0000
vn 0.0628 -0.9980 0.0000
vn 0.0000 -1.0000 0.0000
vn -0.0628 -0.9980 0.0000
vn -0.1253 -0.9921 0.0000
vn -0.1874 -0.9823 0.0000
vn -0.2487 -0.9686 0.0000
vn -0.3090 -0.9510 0.0000
vn -0.3681 -0.9297 0.0000
vn -0.4258 -0.9048 0.0000
vn -0.4817 -0.8763 0.0000
vn -0.5358 -0.8443 0.0000
vn -0.5878 -0.8090 0.0000
vn -0.6374 -0.7705 0.0000
vn -0.6845 -0.7290 0.0000
vn -0.7290 -0.6845 0.0000
vn -0.7705 -0.6374 0.0000
vn -0.8090 -0.5878 0.0000
vn -0.8443 -0.5358 0.0000
vn -0.8763 -0.4817 0.0000
vn -0.9048 -0.4258 0.0000
vn -0.9297 -0.3681 0.0000
vn -0.9510 -0.3090 0.0000
vn -0.9686 -0.2487 0.0000
vn -0.9823 -0.1874 0.0000
vn -0.9921 -0.1253 0.0000
vn -0.9980 -0.0628 0.0000
vn -1.0000 0.0000 0.0000
vn -0.9980 0.0628 0.0000
vn -0.9921 0.1253 0.0000
vn -0.9823 0.1874 0.0000
vn -0.9686 0.2487 0.0000
vn -0.9510 0.3090 0.0000
vn -0.9297 0.3681 0.0000
vn -0.9048 0.4258 0.0000
vn -0.8763 0.4817 0.0000
vn -0.8443 0.5358 0.0000
vn -0.8090 0.5878 0.0000
vn -0.7705 0.6374 0.0000
vn -0.7290 0.6845 0.0000
vn -0.6845 0.7290 0.0000
vn -0.6374 0.7705 0.0000
vn -0.5878 0.8090 0.0000
vn -0.5358 0.8443 0.0000
vn -0.4817 0.8763 0.0000
vn -0.4258 0.9048 0.0000
vn -0.3681 0.9298 0.0000
vn -0.3090 0.9510 0.0000
vn -0.2487 0.9686 0.0000
vn -0.1874 0.9823 0.0000
vn -0.1253 0.9921 0.0000
vn -0.0628 0.9980 0.0000
vn 0.1253 0.9921 0.0000
s 1
f 1/1/1 102/2/2 101/3/1
f 4/4/3 105/5/4 104/6/3
f 5/7/4 106/8/5 105/5/4
f 6/9/5 107/10/6 106/8/5
f 7/11/7 108/12/8 107/10/6
f 8/13/8 109/14/9 108/12/8
f 9/15/9 110/16/10 109/14/9
f 10/17/10 111/18/11 110/16/10
f 11/19/11 112/20/12 111/18/11
f 12/21/12 113/22/13 112/20/12
f 13/23/13 114/24/14 113/22/13
f 14/25/14 115/26/15 114/24/14
f 15/27/15 116/28/16 115/26/15
f 16/29/16 117/30/17 116/28/16
f 17/31/17 118/32/18 117/30/17
f 18/33/18 119/34/19 118/32/18
f 19/35/19 120/36/20 119/34/19
f 20/37/21 121/38/22 120/36/20
f 21/39/22 122/40/23 121/38/22
f 22/41/23 123/42/24 122/40/23
f 23/43/24 124/44/25 123/42/24
f 24/45/25 125/46/26 124/44/25
f 25/47/26 126/48/27 125/46/26
f 26/49/27 127/50/28 126/48/27
f 27/51/28 128/52/29 127/50/28
f 28/53/29 129/54/30 128/52/29
f 29/55/30 130/56/31 129/54/30
f 30/57/31 131/58/32 130/56/31
f 31/59/32 132/60/33 131/58/32
f 32/61/33 133/62/34 132/60/33
f 33/63/34 134/64/35 133/62/34
f 34/65/35 135/66/36 134/64/35
f 35/67/36 136/68/37 135/66/36
f 36/69/37 137/70/38 136/68/37
f 37/71/38 138/72/39 137/70/38
f 38/73/39 139/74/40 138/72/39
f 39/75/40 140/76/41 139/74/40
f 40/77/41 141/78/42 140/79/41
f 141/78/42 42/80/43 142/81/43
f 142/81/43 43/82/44 143/83/44
f 43/82/44 144/84/45 143/83/44
f 44/85/45 145/86/46 144/84/45
f 45/87/46 146/88/47 145/86/46
f 46/89/47 147/90/48 146/88/47
f 47/91/48 148/92/49 147/90/48
f 48/93/49 149/94/50 148/92/49
f 49/95/50 150/96/51 149/94/50
f 50/97/51 151/98/52 150/96/51
f 51/99/52 152/100/53 151/98/52
f 52/101/53 153/102/54 152/100/53
f 53/103/54 154/104/55 153/102/54
f 54/105/55 155/106/56 154/104/55
f 55/107/56 156/108/57 155/106/56
f 56/109/57 157/110/58 156/108/57
f 57/111/58 158/112/59 157/110/58
f 58/113/59 159/114/60 158/112/59
f 59/115/60 160/116/61 159/114/60
f 60/117/61 161/118/62 160/116/61
f 61/119/62 162/120/63 161/118/62
f 62/121/63 163/122/64 162/120/63
f 63/123/64 164/124/65 163/122/64
f 64/125/65 165/126/66 164/124/65
f 65/127/66 166/128/67 165/126/66
f 66/129/67 167/130/68 166/128/67
f 67/131/68 168/132/69 167/130/68
f 68/133/69 169/134/70 168/132/69
f 69/135/70 170/136/71 169/134/70
f 70/137/71 171/138/72 170/136/71
f 71/139/72 172/140/73 171/138/72
f 72/141/73 173/142/74 172/140/73
f 73/143/74 174/144/75 173/142/74
f 74/145/75 175/146/76 174/144/75
f 75/147/76 176/148/77 175/146/76
f 76/149/77 177/150/78 176/148/77
f 77/151/78 178/152/79 177/150/78
f 78/153/79 179/154/80 178/152/79
f 179/154/80 80/155/81 180/156/81
f 80/155/81 181/157/82 180/156/81
f 81/158/82 182/159/83 181/157/82
f 82/160/83 183/161/84 182/159/83
f 83/162/84 184/163/85 183/161/84
f 84/164/85 185/165/86 184/163/85
f 85/166/86 186/167/87 185/165/86
f 86/168/87 187/169/88 186/167/87
f 87/170/88 188/171/89 187/169/88
f 88/172/89 189/173/90 188/171/89
f 89/174/90 190/175/91 189/173/90
f 90/176/91 191/177/92 190/175/91
f 191/177/92 92/178/93 192/179/93
f 92/178/93 193/180/94 192/179/93
f 93/181/94 194/182/95 193/180/94
f 94/183/95 195/184/96 194/182/95
f 95/185/96 196/186/97 195/184/96
f 96/187/97 197/188/98 196/186/97
f 97/189/98 198/190/99 197/188/98
f 98/191/99 199/192/100 198/190/99
f 99/193/100 200/194/101 199/192/100
f 3/195/102 104/6/3 103/196/102
f 100/197/101 101/3/1 200/194/101
f 2/198/2 103/196/102 102/2/2
f 1/1/1 2/198/2 102/2/2
f 4/4/3 5/7/4 105/5/4
f 5/7/4 6/9/5 106/8/5
f 6/9/5 7/11/7 107/10/6
f 7/11/7 8/13/8 108/12/8
f 8/13/8 9/15/9 109/14/9
f 9/15/9 10/17/10 110/16/10
f 10/17/10 11/19/11 111/18/11
f 11/19/11 12/21/12 112/20/12
f 12/21/12 13/23/13 113/22/13
f 13/23/13 14/25/14 114/24/14
f 14/25/14 15/27/15 115/26/15
f 15/27/15 16/29/16 116/28/16
f 16/29/16 17/31/17 117/30/17
f 17/31/17 18/33/18 118/32/18
f 18/33/18 19/35/19 119/34/19
f 19/35/19 20/37/21 120/36/20
f 20/37/21 21/39/22 121/38/22
f 21/39/22 22/41/23 122/40/23
f 22/41/23 23/43/24 123/42/24
f 23/43/24 24/45/25 124/44/25
f 24/45/25 25/47/26 125/46/26
f 25/47/26 26/49/27 126/48/27
f 26/49/27 27/51/28 127/50/28
f 27/51/28 28/53/29 128/52/29
f 28/53/29 29/55/30 129/54/30
f 29/55/30 30/57/31 130/56/31
f 30/57/31 31/59/32 131/58/32
f 31/59/32 32/61/33 132/60/33
f 32/61/33 33/63/34 133/62/34
f 33/63/34 34/65/35 134/64/35
f 34/65/35 35/67/36 135/66/36
f 35/67/36 36/69/37 136/68/37
f 36/69/37 37/71/38 137/70/38
f 37/71/38 38/73/39 138/72/39
f 38/73/39 39/75/40 139/74/40
f 39/75/40 40/199/41 140/76/41
f 40/77/41 41/200/42 141/78/42
f 141/78/42 41/200/42 42/80/43
f 142/81/43 42/80/43 43/82/44
f 43/82/44 44/85/45 144/84/45
f 44/85/45 45/87/46 145/86/46
f 45/87/46 46/89/47 146/88/47
f 46/89/47 47/91/48 147/90/48
f 47/91/48 48/93/49 148/92/49
f 48/93/49 49/95/50 149/94/50
f 49/95/50 50/97/51 150/96/51
f 50/97/51 51/99/52 151/98/52
f 51/99/52 52/101/53 152/100/53
f 52/101/53 53/103/54 153/102/54
f 53/103/54 54/105/55 154/104/55
f 54/105/55 55/107/56 155/106/56
f 55/107/56 56/109/57 156/108/57
f 56/109/57 57/111/58 157/110/58
f 57/111/58 58/113/59 158/112/59
f 58/113/59 59/115/60 159/114/60
f 59/115/60 60/117/61 160/116/61
f 60/117/61 61/119/62 161/118/62
f 61/119/62 62/121/63 162/120/63
f 62/121/63 63/123/64 163/122/64
f 63/123/64 64/125/65 164/124/65
f 64/125/65 65/127/66 165/126/66
f 65/127/66 66/129/67 166/128/67
f 66/129/67 67/131/68 167/130/68
f 67/131/68 68/133/69 168/132/69
f 68/133/69 69/135/70 169/134/70
f 69/135/70 70/137/71 170/136/71
f 70/137/71 71/139/72 171/138/72
f 71/139/72 72/141/73 172/140/73
f 72/141/73 73/143/74 173/142/74
f 73/143/74 74/145/75 174/144/75
f 74/145/75 75/147/76 175/146/76
f 75/147/76 76/149/77 176/148/77
f 76/149/77 77/151/78 177/150/78
f 77/151/78 78/153/79 178/152/79
f 78/153/79 79/201/80 179/154/80
f 179/154/80 79/201/80 80/155/81
f 80/155/81 81/158/82 181/157/82
f 81/158/82 82/160/83 182/159/83
f 82/160/83 83/162/84 183/161/84
f 83/162/84 84/164/85 184/163/85
f 84/164/85 85/166/86 185/165/86
f 85/166/86 86/168/87 186/167/87
f 86/168/87 87/170/88 187/169/88
f 87/170/88 88/172/89 188/171/89
f 88/172/89 89/174/90 189/173/90
f 89/174/90 90/176/91 190/175/91
f 90/176/91 91/202/92 191/177/92
f 191/177/92 91/202/92 92/178/93
f 92/178/93 93/181/94 193/180/94
f 93/181/94 94/183/95 194/182/95
f 94/183/95 95/185/96 195/184/96
f 95/185/96 96/187/97 196/186/97
f 96/187/97 97/189/98 197/188/98
f 97/189/98 98/191/99 198/190/99
f 98/191/99 99/193/100 199/192/100
f 99/193/100 100/197/101 200/194/101
f 3/195/102 4/4/3 104/6/3
f 100/197/101 1/1/1 101/3/1
f 2/198/2 3/195/102 103/196/102
