# Blender v2.78 (sub 0) OBJ File: 'anisotropy.blend'
# www.blender.org
o cylinder_1_cap1_Cylinder.005
v -0.733834 0.779990 1.092088
v -0.709975 0.779240 1.092088
v -0.686209 0.776994 1.092088
v -0.662631 0.773259 1.092088
v -0.639335 0.768052 1.092088
v -0.616411 0.761392 1.092088
v -0.593951 0.753306 1.092088
v -0.572042 0.743825 1.092088
v -0.550773 0.732988 1.092088
v -0.530226 0.720836 1.092088
v -0.510482 0.707419 1.092088
v -0.491620 0.692787 1.092088
v -0.473713 0.677001 1.092088
v -0.456834 0.660121 1.092088
v -0.441047 0.642215 1.092088
v -0.426416 0.623353 1.092088
v -0.412998 0.603609 1.092088
v -0.400847 0.583062 1.092088
v -0.390009 0.561792 1.092088
v -0.380529 0.539884 1.092088
v -0.372442 0.517423 1.092088
v -0.365782 0.494499 1.092088
v -0.360575 0.471203 1.092088
v -0.356841 0.447625 1.092088
v -0.354594 0.423860 1.092088
v -0.353844 0.400000 1.092088
v -0.354594 0.376140 1.092088
v -0.356841 0.352374 1.092088
v -0.360575 0.328797 1.092088
v -0.365782 0.305500 1.092088
v -0.372442 0.282576 1.092088
v -0.380529 0.260116 1.092088
v -0.390009 0.238208 1.092088
v -0.400847 0.216938 1.092088
v -0.412998 0.196391 1.092088
v -0.426416 0.176647 1.092088
v -0.441047 0.157785 1.092088
v -0.456834 0.139879 1.092088
v -0.473713 0.122999 1.092088
v -0.491620 0.107212 1.092088
v -0.510482 0.092581 1.092088
v -0.530226 0.079163 1.092088
v -0.550773 0.067012 1.092088
v -0.572043 0.056174 1.092088
v -0.593951 0.046694 1.092088
v -0.616411 0.038608 1.092088
v -0.639335 0.031948 1.092088
v -0.662632 0.026740 1.092088
v -0.686209 0.023006 1.092088
v -0.709975 0.020760 1.092088
v -0.733835 0.020010 1.092088
v -0.757695 0.020760 1.092088
v -0.781460 0.023006 1.092088
v -0.805038 0.026741 1.092088
v -0.828334 0.031948 1.092088
v -0.851258 0.038608 1.092088
v -0.873719 0.046694 1.092088
v -0.895627 0.056175 1.092088
v -0.916897 0.067012 1.092088
v -0.937443 0.079164 1.092088
v -0.957188 0.092582 1.092088
v -0.976050 0.107213 1.092088
v -0.993956 0.122999 1.092088
v -1.010836 0.139879 1.092088
v -1.026622 0.157785 1.092088
v -1.041253 0.176648 1.092088
v -1.054671 0.196392 1.092088
v -1.066823 0.216939 1.092088
v -1.077660 0.238208 1.092088
v -1.087140 0.260117 1.092088
v -1.095227 0.282577 1.092088
v -1.101887 0.305501 1.092088
v -1.107094 0.328797 1.092088
v -1.110828 0.352375 1.092088
v -1.113075 0.376141 1.092088
v -1.113825 0.400000 1.092088
v -1.113075 0.423860 1.092088
v -1.110828 0.447626 1.092088
v -1.107094 0.471204 1.092088
v -1.101886 0.494500 1.092088
v -1.095226 0.517424 1.092088
v -1.087140 0.539884 1.092088
v -1.077659 0.561792 1.092088
v -1.066822 0.583062 1.092088
v -1.054670 0.603610 1.092088
v -1.041253 0.623353 1.092088
v -1.026622 0.642215 1.092088
v -1.010835 0.660122 1.092088
v -0.993955 0.677001 1.092088
v -0.976049 0.692788 1.092088
v -0.957186 0.707419 1.092088
v -0.937443 0.720837 1.092088
v -0.916895 0.732988 1.092088
v -0.895626 0.743826 1.092088
v -0.873718 0.753306 1.092088
v -0.851257 0.761392 1.092088
v -0.828334 0.768052 1.092088
v -0.805036 0.773260 1.092088
v -0.781459 0.776994 1.092088
v -0.757694 0.779240 1.092088
vt 0.3909 0.9881
vt 0.1048 0.1934
vt 0.9305 0.7546
vt 0.6395 0.9803
vt 0.6091 0.9881
vt 0.5157 0.9999
vt 0.5782 0.9940
vt 0.5471 0.9979
vt 0.4843 0.9999
vt 0.4529 0.9979
vt 0.4218 0.9940
vt 0.3605 0.9803
vt 0.2729 0.9456
vt 0.3306 0.9706
vt 0.3014 0.9590
vt 0.2454 0.9305
vt 0.2189 0.9137
vt 0.1935 0.8952
vt 0.1693 0.8752
vt 0.1463 0.8537
vt 0.0863 0.7811
vt 0.1248 0.8308
vt 0.1048 0.8066
vt 0.0695 0.7546
vt 0.0544 0.7271
vt 0.0410 0.6986
vt 0.0294 0.6694
vt 0.0197 0.6395
vt 0.0119 0.6091
vt 0.0060 0.5782
vt 0.0021 0.5471
vt 0.0001 0.5157
vt 0.0001 0.4843
vt 0.0021 0.4529
vt 0.0060 0.4218
vt 0.0119 0.3909
vt 0.0197 0.3605
vt 0.0294 0.3306
vt 0.0410 0.3014
vt 0.0544 0.2729
vt 0.0695 0.2454
vt 0.0863 0.2189
vt 0.1248 0.1692
vt 0.1464 0.1463
vt 0.1693 0.1248
vt 0.1935 0.1048
vt 0.2189 0.0863
vt 0.3014 0.0410
vt 0.2454 0.0695
vt 0.2730 0.0544
vt 0.3306 0.0294
vt 0.3605 0.0197
vt 0.3909 0.0119
vt 0.4218 0.0060
vt 0.4530 0.0021
vt 0.4843 0.0001
vt 0.5157 0.0001
vt 0.5471 0.0021
vt 0.5783 0.0060
vt 0.6091 0.0119
vt 0.6396 0.0197
vt 0.6694 0.0294
vt 0.6987 0.0410
vt 0.7271 0.0544
vt 0.7546 0.0695
vt 0.7811 0.0864
vt 0.8066 0.1048
vt 0.8752 0.1693
vt 0.8308 0.1248
vt 0.8537 0.1464
vt 0.8952 0.1935
vt 0.9137 0.2189
vt 0.9305 0.2454
vt 0.9456 0.2730
vt 0.9590 0.3014
vt 0.9706 0.3306
vt 0.9803 0.3605
vt 0.9881 0.3909
vt 0.9940 0.4218
vt 0.9979 0.4529
vt 0.9999 0.4843
vt 0.9999 0.5157
vt 0.9979 0.5471
vt 0.9940 0.5783
vt 0.9881 0.6091
vt 0.9803 0.6395
vt 0.9706 0.6694
vt 0.9590 0.6986
vt 0.9456 0.7271
vt 0.9136 0.7811
vt 0.8952 0.8065
vt 0.8751 0.8308
vt 0.8536 0.8537
vt 0.8307 0.8752
vt 0.8065 0.8952
vt 0.7811 0.9137
vt 0.7546 0.9305
vt 0.7270 0.9456
vt 0.6986 0.9590
vt 0.6694 0.9706
vn 0.0000 0.0000 1.0000
vn -0.0001 0.0000 1.0000
vn 0.0001 0.0000 1.0000
s off
f 95/1/1 63/2/1 15/3/1
f 3/4/1 2/5/1 99/6/1
f 1/7/1 100/8/1 99/6/1
f 99/6/1 98/9/1 97/10/1
f 97/10/1 96/11/1 95/1/1
f 95/1/1 94/12/1 91/13/1
f 93/14/2 92/15/2 91/13/2
f 91/13/3 90/16/3 89/17/3
f 89/17/2 88/18/2 91/13/2
f 87/19/1 86/20/1 83/21/1
f 85/22/2 84/23/2 83/21/2
f 83/21/1 82/24/1 81/25/1
f 81/25/1 80/26/1 83/21/1
f 79/27/1 78/28/1 77/29/1
f 77/29/1 76/30/1 75/31/1
f 75/31/1 74/32/1 73/33/1
f 73/33/1 72/34/1 75/31/1
f 71/35/1 70/36/1 69/37/1
f 69/37/1 68/38/1 71/35/1
f 67/39/3 66/40/3 65/41/3
f 65/41/2 64/42/2 67/39/2
f 63/2/1 62/43/1 61/44/1
f 61/44/2 60/45/2 59/46/2
f 59/46/1 58/47/1 55/48/1
f 57/49/1 56/50/1 55/48/1
f 55/48/1 54/51/1 53/52/1
f 53/52/1 52/53/1 55/48/1
f 51/54/1 50/55/1 49/56/1
f 49/56/1 48/57/1 51/54/1
f 47/58/1 46/59/1 45/60/1
f 45/60/2 44/61/2 43/62/2
f 43/62/3 42/63/3 41/64/3
f 41/64/1 40/65/1 43/62/1
f 39/66/1 38/67/1 35/68/1
f 37/69/3 36/70/3 35/68/3
f 35/68/1 34/71/1 33/72/1
f 33/72/3 32/73/3 31/74/3
f 31/74/1 30/75/1 29/76/1
f 29/76/1 28/77/1 27/78/1
f 27/78/3 26/79/3 25/80/3
f 25/80/2 24/81/2 23/82/2
f 23/82/2 22/83/2 21/84/2
f 21/84/1 20/85/1 23/82/1
f 19/86/2 18/87/2 17/88/2
f 17/88/1 16/89/1 19/86/1
f 15/3/1 14/90/1 13/91/1
f 13/91/2 12/92/2 15/3/2
f 11/93/1 10/94/1 9/95/1
f 9/95/1 8/96/1 7/97/1
f 7/97/1 6/98/1 5/99/1
f 5/99/1 4/100/1 7/97/1
f 2/5/1 1/7/1 99/6/1
f 99/6/1 97/10/1 3/4/1
f 94/12/1 93/14/1 91/13/1
f 91/13/1 88/18/1 87/19/1
f 86/20/3 85/22/3 83/21/3
f 83/21/1 80/26/1 79/27/1
f 79/27/1 77/29/1 71/35/1
f 75/31/1 72/34/1 71/35/1
f 71/35/1 68/38/1 67/39/1
f 67/39/1 64/42/1 63/2/1
f 63/2/1 61/44/1 55/48/1
f 58/47/1 57/49/1 55/48/1
f 55/48/1 52/53/1 51/54/1
f 51/54/1 48/57/1 47/58/1
f 47/58/1 45/60/1 39/66/1
f 43/62/1 40/65/1 39/66/1
f 38/67/2 37/69/2 35/68/2
f 35/68/1 33/72/1 31/74/1
f 31/74/1 29/76/1 23/82/1
f 27/78/1 25/80/1 23/82/1
f 23/82/1 20/85/1 19/86/1
f 19/86/1 16/89/1 15/3/1
f 15/3/1 12/92/1 11/93/1
f 11/93/1 9/95/1 15/3/1
f 7/97/1 4/100/1 3/4/1
f 3/4/1 97/10/1 95/1/1
f 95/1/1 91/13/1 87/19/1
f 87/19/1 83/21/1 95/1/1
f 77/29/1 75/31/1 71/35/1
f 71/35/1 67/39/1 63/2/1
f 61/44/1 59/46/1 55/48/1
f 55/48/1 51/54/1 47/58/1
f 45/60/1 43/62/1 39/66/1
f 39/66/1 35/68/1 31/74/1
f 29/76/1 27/78/1 23/82/1
f 23/82/1 19/86/1 15/3/1
f 15/3/1 9/95/1 7/97/1
f 7/97/1 3/4/1 95/1/1
f 95/1/1 83/21/1 79/27/1
f 79/27/1 71/35/1 95/1/1
f 63/2/1 55/48/1 31/74/1
f 47/58/1 39/66/1 31/74/1
f 31/74/1 23/82/1 15/3/1
f 15/3/1 7/97/1 95/1/1
f 95/1/1 71/35/1 63/2/1
f 55/48/1 47/58/1 31/74/1
f 31/74/1 15/3/1 63/2/1
