# Blender v2.78 (sub 0) OBJ File: 'anisotropy.blend'
# www.blender.org
o cylinder_2_Cylinder.004
v -0.562077 1.686922 0.092088
v -0.562471 1.686238 0.066971
v -0.563654 1.684190 0.041954
v -0.565619 1.680786 0.017135
v -0.568360 1.676039 -0.007388
v -0.571865 1.669967 -0.031519
v -0.576121 1.662596 -0.055162
v -0.581111 1.653953 -0.078224
v -0.586815 1.644073 -0.100614
v -0.593211 1.632995 -0.122243
v -0.600273 1.620763 -0.143026
v -0.607974 1.607425 -0.162882
v -0.616283 1.593034 -0.181731
v -0.625167 1.577646 -0.199500
v -0.634592 1.561322 -0.216118
v -0.644520 1.544126 -0.231519
v -0.654911 1.526127 -0.245644
v -0.665726 1.507396 -0.258435
v -0.676921 1.488006 -0.269843
v -0.688452 1.468034 -0.279823
v -0.700273 1.447558 -0.288335
v -0.712339 1.426660 -0.295346
v -0.724601 1.405422 -0.300827
v -0.737010 1.383928 -0.304758
v -0.749519 1.362263 -0.307123
v -0.762077 1.340511 -0.307912
v -0.774635 1.318760 -0.307123
v -0.787143 1.297095 -0.304758
v -0.799553 1.275601 -0.300827
v -0.811815 1.254363 -0.295346
v -0.823880 1.233465 -0.288335
v -0.835702 1.212989 -0.279823
v -0.847233 1.193017 -0.269843
v -0.858428 1.173627 -0.258435
v -0.869242 1.154896 -0.245643
v -0.879634 1.136897 -0.231519
v -0.889562 1.119701 -0.216117
v -0.898986 1.103377 -0.199500
v -0.907871 1.087989 -0.181731
v -0.916180 1.073598 -0.162882
v -0.923880 1.060260 -0.143026
v -0.930942 1.048028 -0.122243
v -0.937338 1.036950 -0.100614
v -0.943042 1.027070 -0.078224
v -0.948032 1.018427 -0.055162
v -0.952288 1.011056 -0.031519
v -0.955793 1.004984 -0.007388
v -0.958534 1.000237 0.017136
v -0.960500 0.996833 0.041955
v -0.961682 0.994785 0.066972
v -0.962077 0.994101 0.092088
v -0.961682 0.994785 0.117204
v -0.960500 0.996833 0.142221
v -0.958534 1.000237 0.167041
v -0.955793 1.004985 0.191564
v -0.952288 1.011056 0.215695
v -0.948032 1.018428 0.239338
v -0.943042 1.027070 0.262400
v -0.937338 1.036950 0.284790
v -0.930942 1.048028 0.306419
v -0.923880 1.060260 0.327202
v -0.916179 1.073598 0.347058
v -0.907870 1.087990 0.365907
v -0.898986 1.103378 0.383676
v -0.889561 1.119702 0.400293
v -0.879634 1.136897 0.415695
v -0.869242 1.154896 0.429819
v -0.858427 1.173627 0.442611
v -0.847232 1.193018 0.454019
v -0.835701 1.212990 0.463998
v -0.823880 1.233465 0.472510
v -0.811814 1.254363 0.479521
v -0.799553 1.275601 0.485003
v -0.787143 1.297095 0.488934
v -0.774634 1.318761 0.491298
v -0.762076 1.340512 0.492088
v -0.749518 1.362263 0.491298
v -0.737010 1.383929 0.488934
v -0.724600 1.405423 0.485002
v -0.712338 1.426661 0.479521
v -0.700273 1.447559 0.472510
v -0.688452 1.468034 0.463998
v -0.676921 1.488006 0.454018
v -0.665726 1.507396 0.442610
v -0.654911 1.526128 0.429819
v -0.644519 1.544127 0.415694
v -0.634592 1.561322 0.400293
v -0.625167 1.577646 0.383675
v -0.616283 1.593034 0.365906
v -0.607974 1.607425 0.347057
v -0.600273 1.620764 0.327201
v -0.593211 1.632996 0.306418
v -0.586815 1.644073 0.284788
v -0.581111 1.653953 0.262399
v -0.576121 1.662596 0.239337
v -0.571865 1.669967 0.215694
v -0.568360 1.676039 0.191563
v -0.565619 1.680786 0.167039
v -0.563654 1.684190 0.142220
v -0.562471 1.686238 0.117203
v 1.083372 0.736922 0.092088
v 1.082977 0.736238 0.066971
v 1.081795 0.734190 0.041954
v 1.079829 0.730786 0.017135
v 1.077088 0.726038 -0.007388
v 1.073583 0.719967 -0.031519
v 1.069327 0.712595 -0.055162
v 1.064337 0.703953 -0.078224
v 1.058633 0.694073 -0.100614
v 1.052237 0.682995 -0.122243
v 1.045175 0.670763 -0.143027
v 1.037474 0.657425 -0.162882
v 1.029165 0.643034 -0.181731
v 1.020281 0.627645 -0.199500
v 1.010856 0.611322 -0.216118
v 1.000929 0.594126 -0.231519
v 0.990537 0.576127 -0.245644
v 0.979722 0.557396 -0.258435
v 0.968527 0.538006 -0.269843
v 0.956996 0.518033 -0.279823
v 0.945175 0.497558 -0.288335
v 0.933109 0.476660 -0.295346
v 0.920848 0.455422 -0.300827
v 0.908438 0.433928 -0.304758
v 0.895930 0.412263 -0.307123
v 0.883371 0.390511 -0.307912
v 0.870813 0.368760 -0.307123
v 0.858305 0.347095 -0.304758
v 0.845895 0.325600 -0.300827
v 0.833633 0.304363 -0.295346
v 0.821568 0.283465 -0.288335
v 0.809747 0.262989 -0.279823
v 0.798216 0.243017 -0.269843
v 0.787021 0.223627 -0.258435
v 0.776206 0.204895 -0.245643
v 0.765814 0.186896 -0.231519
v 0.755887 0.169701 -0.216118
v 0.746462 0.153377 -0.199500
v 0.737578 0.137989 -0.181731
v 0.729269 0.123598 -0.162882
v 0.721568 0.110260 -0.143026
v 0.714506 0.098028 -0.122243
v 0.708110 0.086950 -0.100614
v 0.702406 0.077070 -0.078224
v 0.697416 0.068427 -0.055162
v 0.693160 0.061056 -0.031519
v 0.689655 0.054984 -0.007388
v 0.686914 0.050237 0.017135
v 0.684948 0.046833 0.041955
v 0.683766 0.044785 0.066972
v 0.683371 0.044101 0.092088
v 0.683766 0.044785 0.117204
v 0.684949 0.046833 0.142221
v 0.686914 0.050237 0.167041
v 0.689655 0.054985 0.191564
v 0.693160 0.061056 0.215695
v 0.697416 0.068428 0.239338
v 0.702406 0.077070 0.262400
v 0.708110 0.086950 0.284790
v 0.714506 0.098028 0.306419
v 0.721568 0.110260 0.327202
v 0.729269 0.123598 0.347058
v 0.737578 0.137990 0.365907
v 0.746462 0.153378 0.383675
v 0.755887 0.169702 0.400293
v 0.765815 0.186897 0.415695
v 0.776206 0.204896 0.429819
v 0.787021 0.223627 0.442610
v 0.798216 0.243018 0.454019
v 0.809747 0.262990 0.463998
v 0.821568 0.283465 0.472510
v 0.833634 0.304363 0.479521
v 0.845896 0.325601 0.485003
v 0.858305 0.347095 0.488934
v 0.870814 0.368761 0.491298
v 0.883372 0.390512 0.492088
v 0.895930 0.412263 0.491298
v 0.908438 0.433929 0.488933
v 0.920848 0.455423 0.485002
v 0.933110 0.476661 0.479521
v 0.945175 0.497559 0.472510
v 0.956997 0.518034 0.463998
v 0.968528 0.538006 0.454018
v 0.979722 0.557396 0.442610
v 0.990537 0.576128 0.429818
v 1.000929 0.594127 0.415694
v 1.010857 0.611322 0.400292
v 1.020281 0.627646 0.383675
v 1.029166 0.643034 0.365906
v 1.037474 0.657425 0.347057
v 1.045175 0.670763 0.327201
v 1.052237 0.682996 0.306418
v 1.058633 0.694073 0.284788
v 1.064337 0.703953 0.262399
v 1.069327 0.712596 0.239337
v 1.073583 0.719967 0.215694
v 1.077088 0.726039 0.191563
v 1.079829 0.730786 0.167039
v 1.081795 0.734190 0.142220
v 1.082977 0.736238 0.117203
vt 0.7500 0.0001
vt 0.7600 0.3025
vt 0.7500 0.3025
vt 0.7700 0.0001
vt 0.7800 0.3025
vt 0.7700 0.3025
vt 0.7800 0.0001
vt 0.7900 0.3025
vt 0.7900 0.0001
vt 0.8000 0.3025
vt 0.8000 0.0001
vt 0.8100 0.3025
vt 0.8100 0.0001
vt 0.8200 0.3025
vt 0.8300 0.0001
vt 0.8300 0.3025
vt 0.8400 0.3025
vt 0.8400 0.0001
vt 0.8500 0.3025
vt 0.8500 0.0001
vt 0.8600 0.3025
vt 0.8600 0.0001
vt 0.8700 0.3025
vt 0.8700 0.0001
vt 0.8800 0.3025
vt 0.8800 0.0001
vt 0.8900 0.3025
vt 0.8900 0.0001
vt 0.9000 0.3025
vt 0.9000 0.0001
vt 0.9100 0.3025
vt 0.9100 0.0001
vt 0.9200 0.3025
vt 0.9300 0.0001
vt 0.9300 0.3025
vt 0.9399 0.0001
vt 0.9400 0.3025
vt 0.9500 0.3025
vt 0.9499 0.0001
vt 0.9599 0.3025
vt 0.9599 0.0001
vt 0.9699 0.3025
vt 0.9699 0.0001
vt 0.9799 0.3025
vt 0.9899 0.0001
vt 0.9899 0.3025
vt 0.9999 0.3025
vt 0.0001 0.0001
vt 0.0101 0.3025
vt 0.0001 0.3025
vt 0.0101 0.0001
vt 0.0201 0.3025
vt 0.0201 0.0001
vt 0.0301 0.3025
vt 0.0301 0.0001
vt 0.0401 0.3025
vt 0.0401 0.0001
vt 0.0501 0.3025
vt 0.0500 0.0001
vt 0.0601 0.3025
vt 0.0600 0.0001
vt 0.0701 0.3025
vt 0.0700 0.0001
vt 0.0801 0.3025
vt 0.0800 0.0001
vt 0.0901 0.3025
vt 0.0900 0.0001
vt 0.1001 0.3025
vt 0.1000 0.0001
vt 0.1101 0.3025
vt 0.1100 0.0001
vt 0.1201 0.3025
vt 0.1200 0.0001
vt 0.1300 0.3025
vt 0.1300 0.0001
vt 0.1400 0.3025
vt 0.1400 0.0001
vt 0.1500 0.3025
vt 0.1500 0.0001
vt 0.1600 0.3025
vt 0.1700 0.0001
vt 0.1700 0.3025
vt 0.1800 0.3025
vt 0.1800 0.0001
vt 0.1900 0.3025
vt 0.1900 0.0001
vt 0.2000 0.3025
vt 0.2000 0.0001
vt 0.2100 0.3025
vt 0.2100 0.0001
vt 0.2200 0.3025
vt 0.2200 0.0001
vt 0.2300 0.3025
vt 0.2400 0.0001
vt 0.2400 0.3025
vt 0.2500 0.3025
vt 0.2500 0.0001
vt 0.2600 0.3025
vt 0.2600 0.0001
vt 0.2700 0.3025
vt 0.2700 0.0001
vt 0.2800 0.3025
vt 0.2800 0.0001
vt 0.2900 0.3025
vt 0.2900 0.0001
vt 0.3000 0.3025
vt 0.3000 0.0001
vt 0.3100 0.3025
vt 0.3100 0.0001
vt 0.3200 0.3025
vt 0.3200 0.0001
vt 0.3300 0.3025
vt 0.3300 0.0001
vt 0.3400 0.3025
vt 0.3400 0.0001
vt 0.3500 0.3025
vt 0.3500 0.0001
vt 0.3600 0.3025
vt 0.3600 0.0001
vt 0.3700 0.3025
vt 0.3700 0.0001
vt 0.3800 0.3025
vt 0.3800 0.0001
vt 0.3900 0.3025
vt 0.3900 0.0001
vt 0.4000 0.3025
vt 0.4000 0.0001
vt 0.4100 0.3025
vt 0.4200 0.0001
vt 0.4200 0.3025
vt 0.4300 0.3025
vt 0.4300 0.0001
vt 0.4400 0.3025
vt 0.4400 0.0001
vt 0.4500 0.3025
vt 0.4500 0.0001
vt 0.4600 0.3025
vt 0.4600 0.0001
vt 0.4700 0.3025
vt 0.4700 0.0001
vt 0.4800 0.3025
vt 0.4800 0.0001
vt 0.4900 0.3025
vt 0.4900 0.0001
vt 0.5000 0.3025
vt 0.5000 0.0001
vt 0.5100 0.3025
vt 0.5100 0.0001
vt 0.5200 0.3025
vt 0.5200 0.0001
vt 0.5300 0.3025
vt 0.5300 0.0001
vt 0.5400 0.3025
vt 0.5400 0.0001
vt 0.5500 0.3025
vt 0.5500 0.0001
vt 0.5600 0.3025
vt 0.5700 0.0001
vt 0.5700 0.3025
vt 0.5800 0.3025
vt 0.5800 0.0001
vt 0.5900 0.3025
vt 0.5900 0.0001
vt 0.6000 0.3025
vt 0.6000 0.0001
vt 0.6100 0.3025
vt 0.6100 0.0001
vt 0.6200 0.3025
vt 0.6200 0.0001
vt 0.6300 0.3025
vt 0.6300 0.0001
vt 0.6400 0.3025
vt 0.6400 0.0001
vt 0.6500 0.3025
vt 0.6500 0.0001
vt 0.6600 0.3025
vt 0.6600 0.0001
vt 0.6700 0.3025
vt 0.6700 0.0001
vt 0.6800 0.3025
vt 0.6800 0.0001
vt 0.6900 0.3025
vt 0.7000 0.0001
vt 0.7000 0.3025
vt 0.7100 0.3025
vt 0.7100 0.0001
vt 0.7200 0.3025
vt 0.7200 0.0001
vt 0.7300 0.3025
vt 0.7300 0.0001
vt 0.7400 0.3025
vt 0.7600 0.0001
vt 0.7400 0.0001
vt 0.8200 0.0001
vt 0.9200 0.0001
vt 0.9799 0.0001
vt 0.9999 0.0001
vt 0.1600 0.0001
vt 0.2300 0.0001
vt 0.4100 0.0001
vt 0.5600 0.0001
vt 0.6900 0.0001
vn 0.4990 0.8643 -0.0628
vn 0.4960 0.8592 -0.1253
vn 0.4911 0.8507 -0.1874
vn 0.4843 0.8388 -0.2487
vn 0.4755 0.8236 -0.3090
vn 0.4649 0.8052 -0.3681
vn 0.4524 0.7836 -0.4258
vn 0.4381 0.7589 -0.4817
vn 0.4222 0.7312 -0.5358
vn 0.4045 0.7006 -0.5878
vn 0.3852 0.6673 -0.6374
vn 0.3645 0.6313 -0.6845
vn 0.3423 0.5928 -0.7290
vn 0.3187 0.5520 -0.7705
vn 0.2939 0.5090 -0.8090
vn 0.2679 0.4640 -0.8443
vn 0.2409 0.4172 -0.8763
vn 0.2129 0.3687 -0.9048
vn 0.1841 0.3188 -0.9297
vn 0.1545 0.2676 -0.9510
vn 0.1243 0.2154 -0.9686
vn 0.0937 0.1623 -0.9823
vn 0.0627 0.1085 -0.9921
vn 0.0314 0.0544 -0.9980
vn 0.0000 0.0000 -1.0000
vn -0.0314 -0.0544 -0.9980
vn -0.0627 -0.1085 -0.9921
vn -0.0937 -0.1623 -0.9823
vn -0.1243 -0.2154 -0.9686
vn -0.1545 -0.2676 -0.9510
vn -0.1841 -0.3188 -0.9297
vn -0.2129 -0.3687 -0.9048
vn -0.2409 -0.4172 -0.8763
vn -0.2679 -0.4640 -0.8443
vn -0.2939 -0.5090 -0.8090
vn -0.3187 -0.5520 -0.7705
vn -0.3423 -0.5928 -0.7290
vn -0.3645 -0.6313 -0.6845
vn -0.3852 -0.6673 -0.6374
vn -0.4045 -0.7006 -0.5878
vn -0.4222 -0.7312 -0.5358
vn -0.4381 -0.7589 -0.4817
vn -0.4524 -0.7836 -0.4258
vn -0.4649 -0.8052 -0.3681
vn -0.4755 -0.8236 -0.3090
vn -0.4843 -0.8388 -0.2487
vn -0.4911 -0.8507 -0.1874
vn -0.4960 -0.8592 -0.1253
vn -0.4990 -0.8643 -0.0628
vn -0.5000 -0.8660 0.0000
vn -0.4990 -0.8643 0.0628
vn -0.4960 -0.8592 0.1253
vn -0.4911 -0.8507 0.1874
vn -0.4843 -0.8388 0.2487
vn -0.4755 -0.8236 0.3090
vn -0.4649 -0.8052 0.3681
vn -0.4524 -0.7836 0.4258
vn -0.4381 -0.7589 0.4817
vn -0.4222 -0.7312 0.5358
vn -0.4045 -0.7006 0.5878
vn -0.3852 -0.6673 0.6374
vn -0.3645 -0.6313 0.6845
vn -0.3423 -0.5928 0.7290
vn -0.3187 -0.5520 0.7705
vn -0.2939 -0.5090 0.8090
vn -0.2679 -0.4640 0.8443
vn -0.2409 -0.4172 0.8763
vn -0.2129 -0.3687 0.9048
vn -0.1841 -0.3188 0.9297
vn -0.1841 -0.3188 0.9298
vn -0.1545 -0.2676 0.9510
vn -0.1243 -0.2154 0.9686
vn -0.0937 -0.1623 0.9823
vn -0.0627 -0.1085 0.9921
vn -0.0314 -0.0544 0.9980
vn 0.0000 0.0000 1.0000
vn 0.0314 0.0544 0.9980
vn 0.0627 0.1085 0.9921
vn 0.0937 0.1623 0.9823
vn 0.1243 0.2154 0.9686
vn 0.1545 0.2676 0.9510
vn 0.1841 0.3188 0.9297
vn 0.2129 0.3687 0.9048
vn 0.2409 0.4172 0.8763
vn 0.2679 0.4640 0.8443
vn 0.2939 0.5090 0.8090
vn 0.3187 0.5520 0.7705
vn 0.3423 0.5928 0.7290
vn 0.3645 0.6313 0.6845
vn 0.3852 0.6673 0.6374
vn 0.4045 0.7006 0.5878
vn 0.4222 0.7312 0.5358
vn 0.4382 0.7589 0.4817
vn 0.4381 0.7589 0.4817
vn 0.4524 0.7836 0.4258
vn 0.4649 0.8052 0.3681
vn 0.4755 0.8236 0.3090
vn 0.4843 0.8388 0.2487
vn 0.4911 0.8507 0.1874
vn 0.4960 0.8592 0.1253
vn 0.4990 0.8643 0.0628
vn 0.5000 0.8660 0.0000
s 1
f 102/1/1 3/2/2 2/3/1
f 104/4/3 5/5/4 4/6/3
f 105/7/4 6/8/5 5/5/4
f 106/9/5 7/10/6 6/8/5
f 107/11/6 8/12/7 7/10/6
f 108/13/7 9/14/8 8/12/7
f 9/14/8 110/15/9 10/16/9
f 110/15/9 11/17/10 10/16/9
f 111/18/10 12/19/11 11/17/10
f 112/20/11 13/21/12 12/19/11
f 113/22/12 14/23/13 13/21/12
f 114/24/13 15/25/14 14/23/13
f 115/26/14 16/27/15 15/25/14
f 116/28/15 17/29/16 16/27/15
f 117/30/16 18/31/17 17/29/16
f 118/32/17 19/33/18 18/31/17
f 19/33/18 120/34/19 20/35/19
f 20/35/19 121/36/20 21/37/20
f 121/36/20 22/38/21 21/37/20
f 122/39/21 23/40/22 22/38/21
f 123/41/22 24/42/23 23/40/22
f 124/43/23 25/44/24 24/42/23
f 25/44/24 126/45/25 26/46/25
f 126/45/25 27/47/26 26/46/25
f 127/48/26 28/49/27 27/50/26
f 128/51/27 29/52/28 28/49/27
f 129/53/28 30/54/29 29/52/28
f 130/55/29 31/56/30 30/54/29
f 131/57/30 32/58/31 31/56/30
f 132/59/31 33/60/32 32/58/31
f 133/61/32 34/62/33 33/60/32
f 134/63/33 35/64/34 34/62/33
f 135/65/34 36/66/35 35/64/34
f 136/67/35 37/68/36 36/66/35
f 137/69/36 38/70/37 37/68/36
f 138/71/37 39/72/38 38/70/37
f 139/73/38 40/74/39 39/72/38
f 140/75/39 41/76/40 40/74/39
f 141/77/40 42/78/41 41/76/40
f 142/79/41 43/80/42 42/78/41
f 43/80/42 144/81/43 44/82/43
f 144/81/43 45/83/44 44/82/43
f 145/84/44 46/85/45 45/83/44
f 146/86/45 47/87/46 46/85/45
f 147/88/46 48/89/47 47/87/46
f 148/90/47 49/91/48 48/89/47
f 149/92/48 50/93/49 49/91/48
f 50/93/49 151/94/50 51/95/50
f 151/94/50 52/96/51 51/95/50
f 152/97/51 53/98/52 52/96/51
f 153/99/52 54/100/53 53/98/52
f 154/101/53 55/102/54 54/100/53
f 155/103/54 56/104/55 55/102/54
f 156/105/55 57/106/56 56/104/55
f 157/107/56 58/108/57 57/106/56
f 158/109/57 59/110/58 58/108/57
f 159/111/58 60/112/59 59/110/58
f 160/113/59 61/114/60 60/112/59
f 161/115/60 62/116/61 61/114/60
f 162/117/61 63/118/62 62/116/61
f 163/119/62 64/120/63 63/118/62
f 164/121/63 65/122/64 64/120/63
f 165/123/64 66/124/65 65/122/64
f 166/125/65 67/126/66 66/124/65
f 167/127/66 68/128/67 67/126/66
f 68/128/67 169/129/68 69/130/68
f 169/129/68 70/131/69 69/130/68
f 170/132/70 71/133/71 70/131/69
f 171/134/71 72/135/72 71/133/71
f 172/136/72 73/137/73 72/135/72
f 173/138/73 74/139/74 73/137/73
f 174/140/74 75/141/75 74/139/74
f 175/142/75 76/143/76 75/141/75
f 176/144/76 77/145/77 76/143/76
f 177/146/77 78/147/78 77/145/77
f 178/148/78 79/149/79 78/147/78
f 179/150/79 80/151/80 79/149/79
f 180/152/80 81/153/81 80/151/80
f 181/154/81 82/155/82 81/153/81
f 182/156/82 83/157/83 82/155/82
f 83/157/83 184/158/84 84/159/84
f 184/158/84 85/160/85 84/159/84
f 185/161/85 86/162/86 85/160/85
f 186/163/86 87/164/87 86/162/86
f 187/165/87 88/166/88 87/164/87
f 188/167/88 89/168/89 88/166/88
f 189/169/89 90/170/90 89/168/89
f 190/171/90 91/172/91 90/170/90
f 191/173/91 92/174/92 91/172/91
f 192/175/92 93/176/93 92/174/92
f 193/177/94 94/178/95 93/176/93
f 194/179/95 95/180/96 94/178/95
f 195/181/96 96/182/97 95/180/96
f 96/182/97 197/183/98 97/184/98
f 197/183/98 98/185/99 97/184/98
f 198/186/99 99/187/100 98/185/99
f 199/188/100 100/189/101 99/187/100
f 200/190/101 1/191/102 100/189/101
f 103/192/2 4/6/3 3/2/2
f 101/193/102 2/3/1 1/191/102
f 102/1/1 103/192/2 3/2/2
f 104/4/3 105/7/4 5/5/4
f 105/7/4 106/9/5 6/8/5
f 106/9/5 107/11/6 7/10/6
f 107/11/6 108/13/7 8/12/7
f 108/13/7 109/194/8 9/14/8
f 9/14/8 109/194/8 110/15/9
f 110/15/9 111/18/10 11/17/10
f 111/18/10 112/20/11 12/19/11
f 112/20/11 113/22/12 13/21/12
f 113/22/12 114/24/13 14/23/13
f 114/24/13 115/26/14 15/25/14
f 115/26/14 116/28/15 16/27/15
f 116/28/15 117/30/16 17/29/16
f 117/30/16 118/32/17 18/31/17
f 118/32/17 119/195/18 19/33/18
f 19/33/18 119/195/18 120/34/19
f 20/35/19 120/34/19 121/36/20
f 121/36/20 122/39/21 22/38/21
f 122/39/21 123/41/22 23/40/22
f 123/41/22 124/43/23 24/42/23
f 124/43/23 125/196/24 25/44/24
f 25/44/24 125/196/24 126/45/25
f 126/45/25 127/197/26 27/47/26
f 127/48/26 128/51/27 28/49/27
f 128/51/27 129/53/28 29/52/28
f 129/53/28 130/55/29 30/54/29
f 130/55/29 131/57/30 31/56/30
f 131/57/30 132/59/31 32/58/31
f 132/59/31 133/61/32 33/60/32
f 133/61/32 134/63/33 34/62/33
f 134/63/33 135/65/34 35/64/34
f 135/65/34 136/67/35 36/66/35
f 136/67/35 137/69/36 37/68/36
f 137/69/36 138/71/37 38/70/37
f 138/71/37 139/73/38 39/72/38
f 139/73/38 140/75/39 40/74/39
f 140/75/39 141/77/40 41/76/40
f 141/77/40 142/79/41 42/78/41
f 142/79/41 143/198/42 43/80/42
f 43/80/42 143/198/42 144/81/43
f 144/81/43 145/84/44 45/83/44
f 145/84/44 146/86/45 46/85/45
f 146/86/45 147/88/46 47/87/46
f 147/88/46 148/90/47 48/89/47
f 148/90/47 149/92/48 49/91/48
f 149/92/48 150/199/49 50/93/49
f 50/93/49 150/199/49 151/94/50
f 151/94/50 152/97/51 52/96/51
f 152/97/51 153/99/52 53/98/52
f 153/99/52 154/101/53 54/100/53
f 154/101/53 155/103/54 55/102/54
f 155/103/54 156/105/55 56/104/55
f 156/105/55 157/107/56 57/106/56
f 157/107/56 158/109/57 58/108/57
f 158/109/57 159/111/58 59/110/58
f 159/111/58 160/113/59 60/112/59
f 160/113/59 161/115/60 61/114/60
f 161/115/60 162/117/61 62/116/61
f 162/117/61 163/119/62 63/118/62
f 163/119/62 164/121/63 64/120/63
f 164/121/63 165/123/64 65/122/64
f 165/123/64 166/125/65 66/124/65
f 166/125/65 167/127/66 67/126/66
f 167/127/66 168/200/67 68/128/67
f 68/128/67 168/200/67 169/129/68
f 169/129/68 170/132/70 70/131/69
f 170/132/70 171/134/71 71/133/71
f 171/134/71 172/136/72 72/135/72
f 172/136/72 173/138/73 73/137/73
f 173/138/73 174/140/74 74/139/74
f 174/140/74 175/142/75 75/141/75
f 175/142/75 176/144/76 76/143/76
f 176/144/76 177/146/77 77/145/77
f 177/146/77 178/148/78 78/147/78
f 178/148/78 179/150/79 79/149/79
f 179/150/79 180/152/80 80/151/80
f 180/152/80 181/154/81 81/153/81
f 181/154/81 182/156/82 82/155/82
f 182/156/82 183/201/83 83/157/83
f 83/157/83 183/201/83 184/158/84
f 184/158/84 185/161/85 85/160/85
f 185/161/85 186/163/86 86/162/86
f 186/163/86 187/165/87 87/164/87
f 187/165/87 188/167/88 88/166/88
f 188/167/88 189/169/89 89/168/89
f 189/169/89 190/171/90 90/170/90
f 190/171/90 191/173/91 91/172/91
f 191/173/91 192/175/92 92/174/92
f 192/175/92 193/177/94 93/176/93
f 193/177/94 194/179/95 94/178/95
f 194/179/95 195/181/96 95/180/96
f 195/181/96 196/202/97 96/182/97
f 96/182/97 196/202/97 197/183/98
f 197/183/98 198/186/99 98/185/99
f 198/186/99 199/188/100 99/187/100
f 199/188/100 200/190/101 100/189/101
f 200/190/101 101/193/102 1/191/102
f 103/192/2 104/4/3 4/6/3
f 101/193/102 102/1/1 2/3/1
