# Blender v2.78 (sub 0) OBJ File: 'anisotropy.blend'
# www.blender.org
o cylinder_2_cap1_Cylinder.009
v -0.615383 1.694593 0.092088
v -0.615758 1.693943 0.068228
v -0.616881 1.691998 0.044462
v -0.618748 1.688764 0.020884
v -0.621352 1.684254 -0.002412
v -0.624682 1.678486 -0.025336
v -0.628725 1.671483 -0.047796
v -0.633465 1.663273 -0.069704
v -0.638884 1.653888 -0.090974
v -0.644960 1.643364 -0.111521
v -0.651669 1.631744 -0.131265
v -0.658984 1.619073 -0.150127
v -0.666878 1.605401 -0.168034
v -0.675317 1.590783 -0.184913
v -0.684271 1.575276 -0.200700
v -0.693702 1.558941 -0.215331
v -0.703574 1.541842 -0.228749
v -0.713847 1.524048 -0.240900
v -0.724482 1.505627 -0.251738
v -0.735436 1.486655 -0.261218
v -0.746666 1.467203 -0.269304
v -0.758128 1.447350 -0.275964
v -0.769776 1.427175 -0.281172
v -0.781565 1.406756 -0.284906
v -0.793448 1.386175 -0.287153
v -0.805378 1.365511 -0.287902
v -0.817308 1.344848 -0.287153
v -0.829191 1.324267 -0.284906
v -0.840980 1.303848 -0.281172
v -0.852628 1.283672 -0.275964
v -0.864090 1.263820 -0.269304
v -0.875320 1.244369 -0.261218
v -0.886274 1.225395 -0.251738
v -0.896909 1.206975 -0.240900
v -0.907183 1.189181 -0.228748
v -0.917054 1.172082 -0.215331
v -0.926486 1.155747 -0.200699
v -0.935439 1.140240 -0.184913
v -0.943879 1.125622 -0.168033
v -0.951772 1.111950 -0.150127
v -0.959087 1.099279 -0.131265
v -0.965796 1.087659 -0.111521
v -0.971872 1.077136 -0.090974
v -0.977291 1.067750 -0.069704
v -0.982031 1.059540 -0.047796
v -0.986074 1.052537 -0.025336
v -0.989404 1.046769 -0.002412
v -0.992008 1.042259 0.020885
v -0.993875 1.039025 0.044463
v -0.994998 1.037080 0.068228
v -0.995373 1.036430 0.092088
v -0.994998 1.037080 0.115948
v -0.993875 1.039025 0.139714
v -0.992008 1.042259 0.163291
v -0.989404 1.046769 0.186588
v -0.986074 1.052537 0.209512
v -0.982031 1.059540 0.231972
v -0.977291 1.067750 0.253880
v -0.971872 1.077136 0.275150
v -0.965796 1.087659 0.295697
v -0.959087 1.099280 0.315441
v -0.951772 1.111951 0.334303
v -0.943878 1.125622 0.352209
v -0.935438 1.140240 0.369089
v -0.926485 1.155748 0.384875
v -0.917054 1.172083 0.399506
v -0.907182 1.189181 0.412924
v -0.896909 1.206976 0.425076
v -0.886274 1.225396 0.435913
v -0.875320 1.244369 0.445394
v -0.864089 1.263820 0.453480
v -0.852628 1.283673 0.460140
v -0.840979 1.303848 0.465347
v -0.829190 1.324267 0.469082
v -0.817308 1.344849 0.471328
v -0.805378 1.365512 0.472078
v -0.793448 1.386175 0.471328
v -0.781565 1.406757 0.469081
v -0.769776 1.427176 0.465347
v -0.758128 1.447351 0.460140
v -0.746666 1.467203 0.453480
v -0.735436 1.486655 0.445393
v -0.724482 1.505628 0.435913
v -0.713847 1.524048 0.425075
v -0.703573 1.541843 0.412924
v -0.693702 1.558941 0.399506
v -0.684270 1.575276 0.384875
v -0.675317 1.590784 0.369088
v -0.666877 1.605402 0.352208
v -0.658984 1.619073 0.334302
v -0.651668 1.631744 0.315440
v -0.644960 1.643364 0.295696
v -0.638884 1.653888 0.275148
v -0.633465 1.663273 0.253879
v -0.628725 1.671484 0.231971
v -0.624682 1.678487 0.209510
v -0.621352 1.684254 0.186587
v -0.618748 1.688764 0.163290
v -0.616881 1.691998 0.139712
v -0.615758 1.693943 0.115947
vt 0.9803 0.3605
vt 0.8751 0.8308
vt 0.0410 0.6986
vt 0.3909 0.0119
vt 0.4218 0.0060
vt 0.4529 0.0021
vt 0.4843 0.0001
vt 0.5157 0.0001
vt 0.5471 0.0021
vt 0.6395 0.0197
vt 0.5782 0.0060
vt 0.6091 0.0119
vt 0.6694 0.0294
vt 0.7546 0.0695
vt 0.6986 0.0410
vt 0.7270 0.0544
vt 0.7811 0.0863
vt 0.8065 0.1048
vt 0.8307 0.1248
vt 0.8536 0.1463
vt 0.8751 0.1692
vt 0.9305 0.2454
vt 0.8952 0.1934
vt 0.9136 0.2189
vt 0.9456 0.2729
vt 0.9590 0.3014
vt 0.9706 0.3306
vt 0.9881 0.3909
vt 0.9940 0.4218
vt 0.9979 0.4529
vt 0.9999 0.4843
vt 0.9999 0.5157
vt 0.9979 0.5471
vt 0.9940 0.5782
vt 0.9881 0.6091
vt 0.9803 0.6395
vt 0.9706 0.6694
vt 0.9590 0.6986
vt 0.9456 0.7271
vt 0.9305 0.7546
vt 0.9136 0.7811
vt 0.8952 0.8066
vt 0.8536 0.8537
vt 0.8307 0.8752
vt 0.8065 0.8952
vt 0.7811 0.9137
vt 0.7546 0.9305
vt 0.7270 0.9456
vt 0.6986 0.9590
vt 0.6694 0.9706
vt 0.6395 0.9803
vt 0.6091 0.9881
vt 0.5782 0.9940
vt 0.5470 0.9979
vt 0.5157 0.9999
vt 0.4842 0.9999
vt 0.4529 0.9979
vt 0.4217 0.9940
vt 0.3909 0.9881
vt 0.3604 0.9803
vt 0.3305 0.9706
vt 0.3013 0.9590
vt 0.2729 0.9456
vt 0.2454 0.9305
vt 0.2188 0.9136
vt 0.1934 0.8952
vt 0.1692 0.8752
vt 0.1048 0.8065
vt 0.1463 0.8536
vt 0.1248 0.8307
vt 0.0863 0.7811
vt 0.0695 0.7546
vt 0.0544 0.7270
vt 0.0294 0.6694
vt 0.0197 0.6395
vt 0.0119 0.6091
vt 0.0060 0.5782
vt 0.0021 0.5471
vt 0.0021 0.4529
vt 0.0001 0.5157
vt 0.0001 0.4843
vt 0.0060 0.4218
vt 0.0119 0.3909
vt 0.0197 0.3605
vt 0.0294 0.3306
vt 0.0410 0.3014
vt 0.0544 0.2729
vt 0.0695 0.2454
vt 0.0863 0.2189
vt 0.1048 0.1935
vt 0.1248 0.1692
vt 0.1464 0.1463
vt 0.1693 0.1248
vt 0.1935 0.1048
vt 0.2189 0.0863
vt 0.2454 0.0695
vt 0.2729 0.0544
vt 0.3014 0.0410
vt 0.3306 0.0294
vt 0.3605 0.0197
vn -0.8660 0.5000 0.0000
vn -0.8661 0.4999 0.0000
vn -0.8660 0.5001 0.0000
vn -0.8660 0.5000 -0.0001
vn -0.8660 0.5001 -0.0001
vn -0.8660 0.5000 0.0001
vn -0.8659 0.5001 0.0001
vn -0.8660 0.5001 0.0001
vn -0.8661 0.4999 0.0001
vn -0.8660 0.5000 -0.0002
vn -0.8661 0.4999 -0.0002
vn -0.8661 0.4999 -0.0001
s off
f 24/1/1 40/2/1 72/3/1
f 100/4/2 1/5/2 2/6/2
f 2/6/1 3/7/1 4/8/1
f 4/8/1 5/9/1 8/10/1
f 6/11/3 7/12/3 8/10/3
f 8/10/1 9/13/1 12/14/1
f 10/15/4 11/16/4 12/14/4
f 12/14/5 13/17/5 14/18/5
f 14/18/4 15/19/4 16/20/4
f 16/20/1 17/21/1 20/22/1
f 18/23/4 19/24/4 20/22/4
f 20/22/6 21/25/6 22/26/6
f 22/26/4 23/27/4 20/22/4
f 24/1/6 25/28/6 26/29/6
f 26/29/1 27/30/1 28/31/1
f 28/31/4 29/32/4 30/33/4
f 30/33/6 31/34/6 28/31/6
f 32/35/1 33/36/1 34/37/1
f 34/37/1 35/38/1 32/35/1
f 36/39/1 37/40/1 40/2/1
f 38/41/7 39/42/7 40/2/7
f 40/2/1 41/43/1 42/44/1
f 42/44/1 43/45/1 40/2/1
f 44/46/8 45/47/8 46/48/8
f 46/48/1 47/49/1 44/46/1
f 48/50/2 49/51/2 50/52/2
f 50/52/1 51/53/1 48/50/1
f 52/54/2 53/55/2 54/56/2
f 54/56/2 55/57/2 56/58/2
f 56/58/2 57/59/2 58/60/2
f 58/60/1 59/61/1 60/62/1
f 60/62/9 61/63/9 62/64/9
f 62/64/4 63/65/4 60/62/4
f 64/66/1 65/67/1 68/68/1
f 66/69/1 67/70/1 68/68/1
f 68/68/1 69/71/1 70/72/1
f 70/72/10 71/73/10 72/3/10
f 72/3/6 73/74/6 74/75/6
f 74/75/4 75/76/4 76/77/4
f 76/77/1 77/78/1 80/79/1
f 78/80/1 79/81/1 80/79/1
f 80/79/6 81/82/6 82/83/6
f 82/83/4 83/84/4 80/79/4
f 84/85/11 85/86/11 86/87/11
f 86/87/4 87/88/4 88/89/4
f 88/89/1 89/90/1 90/91/1
f 90/91/6 91/92/6 92/93/6
f 92/93/12 93/94/12 94/95/12
f 94/95/1 95/96/1 92/93/1
f 96/97/6 97/98/6 98/99/6
f 98/99/3 99/100/3 100/4/3
f 100/4/1 2/6/1 4/8/1
f 5/9/1 6/11/1 8/10/1
f 9/13/1 10/15/1 12/14/1
f 12/14/1 14/18/1 8/10/1
f 17/21/6 18/23/6 20/22/6
f 20/22/1 23/27/1 24/1/1
f 24/1/1 26/29/1 32/35/1
f 28/31/1 31/34/1 32/35/1
f 32/35/1 35/38/1 36/39/1
f 37/40/1 38/41/1 40/2/1
f 40/2/1 43/45/1 44/46/1
f 44/46/1 47/49/1 48/50/1
f 48/50/1 51/53/1 52/54/1
f 52/54/1 54/56/1 48/50/1
f 56/58/1 58/60/1 60/62/1
f 60/62/1 63/65/1 64/66/1
f 65/67/1 66/69/1 68/68/1
f 68/68/1 70/72/1 72/3/1
f 72/3/1 74/75/1 80/79/1
f 77/78/1 78/80/1 80/79/1
f 80/79/1 83/84/1 84/85/1
f 84/85/1 86/87/1 80/79/1
f 88/89/1 90/91/1 96/97/1
f 92/93/1 95/96/1 96/97/1
f 96/97/1 98/99/1 8/10/1
f 100/4/1 4/8/1 8/10/1
f 8/10/1 14/18/1 16/20/1
f 16/20/1 20/22/1 24/1/1
f 26/29/1 28/31/1 32/35/1
f 32/35/1 36/39/1 40/2/1
f 40/2/1 44/46/1 56/58/1
f 48/50/1 54/56/1 56/58/1
f 56/58/1 60/62/1 64/66/1
f 64/66/1 68/68/1 56/58/1
f 74/75/1 76/77/1 80/79/1
f 80/79/1 86/87/1 88/89/1
f 90/91/1 92/93/1 96/97/1
f 98/99/1 100/4/1 8/10/1
f 8/10/1 16/20/1 24/1/1
f 24/1/1 32/35/1 40/2/1
f 44/46/1 48/50/1 56/58/1
f 56/58/1 68/68/1 72/3/1
f 72/3/1 80/79/1 88/89/1
f 88/89/1 96/97/1 8/10/1
f 8/10/1 24/1/1 72/3/1
f 40/2/1 56/58/1 72/3/1
f 72/3/1 88/89/1 8/10/1
