# Blender v2.78 (sub 0) OBJ File: 'anisotropy.blend'
# www.blender.org
o cylinder_2_bevel2_Cylinder.011
v 1.083372 0.736922 0.092088
v 1.116668 0.694592 0.092088
v 1.116293 0.693943 0.068228
v 1.082977 0.736238 0.066971
v 1.115170 0.691998 0.044462
v 1.081795 0.734190 0.041954
v 1.113302 0.688764 0.020884
v 1.079829 0.730786 0.017135
v 1.110699 0.684254 -0.002412
v 1.077088 0.726038 -0.007388
v 1.107369 0.678486 -0.025336
v 1.073583 0.719967 -0.031519
v 1.103326 0.671483 -0.047796
v 1.069327 0.712595 -0.055162
v 1.098585 0.663273 -0.069704
v 1.064337 0.703953 -0.078224
v 1.093167 0.653887 -0.090974
v 1.058633 0.694073 -0.100614
v 1.087091 0.643364 -0.111521
v 1.052237 0.682995 -0.122243
v 1.080382 0.631744 -0.131265
v 1.045175 0.670763 -0.143027
v 1.073066 0.619073 -0.150127
v 1.037474 0.657425 -0.162882
v 1.065173 0.605401 -0.168034
v 1.029165 0.643034 -0.181731
v 1.056733 0.590783 -0.184913
v 1.020281 0.627645 -0.199500
v 1.047780 0.575275 -0.200700
v 1.010856 0.611322 -0.216118
v 1.038349 0.558940 -0.215331
v 1.000929 0.594126 -0.231519
v 1.028477 0.541842 -0.228749
v 0.990537 0.576127 -0.245644
v 1.018204 0.524047 -0.240900
v 0.979722 0.557396 -0.258435
v 1.007569 0.505627 -0.251738
v 0.968527 0.538006 -0.269843
v 0.996615 0.486654 -0.261218
v 0.956996 0.518033 -0.279823
v 0.985384 0.467203 -0.269305
v 0.945175 0.497558 -0.288335
v 0.973922 0.447350 -0.275965
v 0.933109 0.476660 -0.295346
v 0.962274 0.427175 -0.281172
v 0.920848 0.455422 -0.300827
v 0.950485 0.406756 -0.284906
v 0.908438 0.433928 -0.304758
v 0.938603 0.386174 -0.287153
v 0.895930 0.412263 -0.307123
v 0.926673 0.365511 -0.287903
v 0.883371 0.390511 -0.307912
v 0.914743 0.344848 -0.287153
v 0.870813 0.368760 -0.307123
v 0.902860 0.324266 -0.284906
v 0.858305 0.347095 -0.304758
v 0.891071 0.303848 -0.281172
v 0.845895 0.325600 -0.300827
v 0.879423 0.283672 -0.275964
v 0.833633 0.304363 -0.295346
v 0.867961 0.263820 -0.269304
v 0.821568 0.283465 -0.288335
v 0.856731 0.244368 -0.261218
v 0.809747 0.262989 -0.279823
v 0.845777 0.225395 -0.251738
v 0.798216 0.243017 -0.269843
v 0.835142 0.206975 -0.240900
v 0.787021 0.223627 -0.258435
v 0.824868 0.189181 -0.228749
v 0.776206 0.204895 -0.245643
v 0.814996 0.172082 -0.215331
v 0.765814 0.186896 -0.231519
v 0.805565 0.155747 -0.200700
v 0.755887 0.169701 -0.216118
v 0.796612 0.140240 -0.184913
v 0.746462 0.153377 -0.199500
v 0.788172 0.125622 -0.168034
v 0.737578 0.137989 -0.181731
v 0.780279 0.111950 -0.150127
v 0.729269 0.123598 -0.162882
v 0.772964 0.099279 -0.131265
v 0.721568 0.110260 -0.143026
v 0.766255 0.087659 -0.111521
v 0.714506 0.098028 -0.122243
v 0.760179 0.077135 -0.090974
v 0.708110 0.086950 -0.100614
v 0.754760 0.067750 -0.069704
v 0.702406 0.077070 -0.078224
v 0.750020 0.059539 -0.047796
v 0.697416 0.068427 -0.055162
v 0.745977 0.052537 -0.025336
v 0.693160 0.061056 -0.031519
v 0.742647 0.046769 -0.002412
v 0.689655 0.054984 -0.007388
v 0.740043 0.042259 0.020885
v 0.686914 0.050237 0.017135
v 0.738176 0.039025 0.044463
v 0.684948 0.046833 0.041955
v 0.737053 0.037080 0.068228
v 0.683766 0.044785 0.066972
v 0.736678 0.036430 0.092088
v 0.683371 0.044101 0.092088
v 0.737053 0.037080 0.115948
v 0.683766 0.044785 0.117204
v 0.738176 0.039025 0.139713
v 0.684949 0.046833 0.142221
v 0.740043 0.042259 0.163291
v 0.686914 0.050237 0.167041
v 0.742647 0.046769 0.186588
v 0.689655 0.054985 0.191564
v 0.745977 0.052537 0.209511
v 0.693160 0.061056 0.215695
v 0.750020 0.059540 0.231972
v 0.697416 0.068428 0.239338
v 0.754760 0.067750 0.253880
v 0.702406 0.077070 0.262400
v 0.760179 0.077136 0.275150
v 0.708110 0.086950 0.284790
v 0.766255 0.087659 0.295697
v 0.714506 0.098028 0.306419
v 0.772964 0.099280 0.315441
v 0.721568 0.110260 0.327202
v 0.780279 0.111950 0.334303
v 0.729269 0.123598 0.347058
v 0.788172 0.125622 0.352209
v 0.737578 0.137990 0.365907
v 0.796612 0.140240 0.369089
v 0.746462 0.153378 0.383675
v 0.805565 0.155747 0.384875
v 0.755887 0.169702 0.400293
v 0.814997 0.172083 0.399506
v 0.765815 0.186897 0.415695
v 0.824869 0.189181 0.412924
v 0.776206 0.204896 0.429819
v 0.835142 0.206976 0.425076
v 0.787021 0.223627 0.442610
v 0.845777 0.225396 0.435913
v 0.798216 0.243018 0.454019
v 0.856731 0.244369 0.445394
v 0.809747 0.262990 0.463998
v 0.867961 0.263820 0.453480
v 0.821568 0.283465 0.472510
v 0.879423 0.283673 0.460140
v 0.833634 0.304363 0.479521
v 0.891071 0.303848 0.465347
v 0.845896 0.325601 0.485003
v 0.902860 0.324267 0.469081
v 0.858305 0.347095 0.488934
v 0.914743 0.344849 0.471328
v 0.870814 0.368761 0.491298
v 0.926673 0.365512 0.472078
v 0.883372 0.390512 0.492088
v 0.938603 0.386175 0.471328
v 0.895930 0.412263 0.491298
v 0.950486 0.406757 0.469081
v 0.908438 0.433929 0.488933
v 0.962275 0.427176 0.465347
v 0.920848 0.455423 0.485002
v 0.973923 0.447351 0.460139
v 0.933110 0.476661 0.479521
v 0.985385 0.467203 0.453480
v 0.945175 0.497559 0.472510
v 0.996615 0.486655 0.445393
v 0.956997 0.518034 0.463998
v 1.007569 0.505628 0.435913
v 0.968528 0.538006 0.454018
v 1.018204 0.524048 0.425075
v 0.979722 0.557396 0.442610
v 1.028478 0.541842 0.412923
v 0.990537 0.576128 0.429818
v 1.038349 0.558941 0.399506
v 1.000929 0.594127 0.415694
v 1.047780 0.575276 0.384875
v 1.010857 0.611322 0.400292
v 1.056734 0.590783 0.369088
v 1.020281 0.627646 0.383675
v 1.065174 0.605402 0.352208
v 1.029166 0.643034 0.365906
v 1.073067 0.619073 0.334302
v 1.037474 0.657425 0.347057
v 1.080382 0.631744 0.315440
v 1.045175 0.670763 0.327201
v 1.087091 0.643364 0.295696
v 1.052237 0.682996 0.306418
v 1.093167 0.653888 0.275148
v 1.058633 0.694073 0.284788
v 1.098586 0.663273 0.253879
v 1.064337 0.703953 0.262399
v 1.103326 0.671484 0.231971
v 1.069327 0.712596 0.239337
v 1.107369 0.678486 0.209510
v 1.073583 0.719967 0.215694
v 1.110699 0.684254 0.186587
v 1.077088 0.726039 0.191563
v 1.113303 0.688764 0.163290
v 1.079829 0.730786 0.167039
v 1.115170 0.691998 0.139712
v 1.081795 0.734190 0.142220
v 1.116293 0.693943 0.115947
v 1.082977 0.736238 0.117203
vt 0.7048 0.9372
vt 0.7136 0.9053
vt 0.7249 0.9276
vt 0.7323 0.8954
vt 0.7445 0.9172
vt 0.7636 0.9059
vt 0.7504 0.8847
vt 0.7681 0.8732
vt 0.7822 0.8938
vt 0.7853 0.8609
vt 0.8003 0.8808
vt 0.8177 0.8671
vt 0.8018 0.8478
vt 0.8346 0.8526
vt 0.8178 0.8340
vt 0.8332 0.8196
vt 0.8507 0.8374
vt 0.8479 0.8044
vt 0.8662 0.8215
vt 0.8619 0.7887
vt 0.8810 0.8049
vt 0.8752 0.7723
vt 0.8950 0.7876
vt 0.9082 0.7698
vt 0.8878 0.7553
vt 0.8996 0.7378
vt 0.9206 0.7513
vt 0.9106 0.7198
vt 0.9322 0.7324
vt 0.9208 0.7014
vt 0.9429 0.7130
vt 0.9528 0.6930
vt 0.9301 0.6824
vt 0.9387 0.6631
vt 0.9618 0.6727
vt 0.9698 0.6520
vt 0.9463 0.6435
vt 0.9769 0.6310
vt 0.9531 0.6235
vt 0.9590 0.6032
vt 0.9831 0.6097
vt 0.9883 0.5881
vt 0.9639 0.5827
vt 0.9680 0.5620
vt 0.9926 0.5663
vt 0.9959 0.5443
vt 0.9711 0.5411
vt 0.9733 0.5202
vt 0.9982 0.5222
vt 0.9746 0.4991
vt 0.9996 0.5000
vt 0.9749 0.4780
vt 0.9999 0.4778
vt 0.3640 0.0001
vt 0.3507 0.0304
vt 0.3428 0.0066
vt 0.3219 0.0141
vt 0.3308 0.0374
vt 0.3112 0.0454
vt 0.3013 0.0224
vt 0.2921 0.0542
vt 0.2811 0.0317
vt 0.2614 0.0419
vt 0.2733 0.0639
vt 0.2421 0.0529
vt 0.2550 0.0743
vt 0.2233 0.0648
vt 0.2372 0.0856
vt 0.2199 0.0977
vt 0.2051 0.0775
vt 0.2031 0.1105
vt 0.1875 0.0910
vt 0.1869 0.1241
vt 0.1704 0.1053
vt 0.1541 0.1203
vt 0.1714 0.1383
vt 0.1565 0.1533
vt 0.1384 0.1360
vt 0.1422 0.1689
vt 0.1234 0.1524
vt 0.1092 0.1695
vt 0.1287 0.1851
vt 0.1159 0.2018
vt 0.0957 0.1871
vt 0.1039 0.2192
vt 0.0830 0.2054
vt 0.0927 0.2370
vt 0.0712 0.2242
vt 0.0822 0.2554
vt 0.0602 0.2435
vt 0.0501 0.2632
vt 0.0726 0.2741
vt 0.0638 0.2933
vt 0.0408 0.2834
vt 0.0559 0.3129
vt 0.0325 0.3040
vt 0.0251 0.3250
vt 0.0489 0.3328
vt 0.0427 0.3530
vt 0.0186 0.3462
vt 0.0375 0.3734
vt 0.0131 0.3677
vt 0.0332 0.3941
vt 0.0086 0.3895
vt 0.0297 0.4149
vt 0.0050 0.4114
vt 0.0024 0.4335
vt 0.0273 0.4359
vt 0.0257 0.4569
vt 0.0007 0.4556
vt 0.0251 0.4780
vt 0.0001 0.4778
vt 0.0004 0.5000
vt 0.0254 0.4991
vt 0.0267 0.5201
vt 0.0018 0.5222
vt 0.0289 0.5411
vt 0.0041 0.5443
vt 0.0074 0.5663
vt 0.0320 0.5620
vt 0.0361 0.5827
vt 0.0116 0.5881
vt 0.0169 0.6096
vt 0.0410 0.6032
vt 0.0469 0.6235
vt 0.0231 0.6310
vt 0.0302 0.6520
vt 0.0537 0.6435
vt 0.0382 0.6727
vt 0.0613 0.6631
vt 0.0699 0.6824
vt 0.0472 0.6930
vt 0.0571 0.7129
vt 0.0792 0.7014
vt 0.0678 0.7324
vt 0.0894 0.7198
vt 0.0794 0.7513
vt 0.1004 0.7378
vt 0.1122 0.7553
vt 0.0918 0.7698
vt 0.1248 0.7723
vt 0.1050 0.7876
vt 0.1190 0.8049
vt 0.1381 0.7887
vt 0.1338 0.8215
vt 0.1521 0.8044
vt 0.1668 0.8196
vt 0.1493 0.8374
vt 0.1654 0.8526
vt 0.1822 0.8340
vt 0.1982 0.8478
vt 0.1823 0.8671
vt 0.2147 0.8609
vt 0.1997 0.8808
vt 0.2178 0.8938
vt 0.2319 0.8732
vt 0.2364 0.9059
vt 0.2496 0.8847
vt 0.2677 0.8954
vt 0.2555 0.9172
vt 0.2751 0.9276
vt 0.2864 0.9053
vt 0.3054 0.9144
vt 0.2952 0.9372
vt 0.3156 0.9458
vt 0.3249 0.9226
vt 0.3446 0.9299
vt 0.3365 0.9536
vt 0.3576 0.9604
vt 0.3647 0.9364
vt 0.3851 0.9420
vt 0.3790 0.9662
vt 0.4057 0.9466
vt 0.4007 0.9711
vt 0.4264 0.9503
vt 0.4226 0.9750
vt 0.4446 0.9780
vt 0.4474 0.9531
vt 0.4667 0.9800
vt 0.4684 0.9550
vt 0.4894 0.9560
vt 0.4889 0.9810
vt 0.5105 0.9560
vt 0.5111 0.9810
vt 0.5333 0.9800
vt 0.5316 0.9550
vt 0.5554 0.9780
vt 0.5526 0.9531
vt 0.5736 0.9503
vt 0.5774 0.9750
vt 0.5993 0.9711
vt 0.5943 0.9466
vt 0.6149 0.9420
vt 0.6210 0.9662
vt 0.6424 0.9604
vt 0.6353 0.9364
vt 0.6635 0.9536
vt 0.6554 0.9299
vt 0.6751 0.9226
vt 0.6844 0.9458
vt 0.6946 0.9144
vt 0.3708 0.0242
vn 0.7860 0.6182 0.0000
vn 0.7851 0.6167 -0.0583
vn 0.7823 0.6119 -0.1163
vn 0.7777 0.6040 -0.1740
vn 0.7714 0.5930 -0.2309
vn 0.7632 0.5789 -0.2869
vn 0.7533 0.5618 -0.3417
vn 0.7418 0.5417 -0.3953
vn 0.7285 0.5188 -0.4472
vn 0.7137 0.4931 -0.4975
vn 0.6973 0.4647 -0.5457
vn 0.6794 0.4337 -0.5918
vn 0.6601 0.4003 -0.6355
vn 0.6395 0.3646 -0.6768
vn 0.6177 0.3267 -0.7154
vn 0.5946 0.2868 -0.7511
vn 0.5705 0.2450 -0.7839
vn 0.5454 0.2015 -0.8136
vn 0.5194 0.1566 -0.8401
vn 0.4926 0.1102 -0.8632
vn 0.4652 0.0627 -0.8830
vn 0.4372 0.0142 -0.8992
vn 0.4087 -0.0351 -0.9120
vn 0.3799 -0.0850 -0.9211
vn 0.3509 -0.1353 -0.9266
vn 0.3218 -0.1858 -0.9284
vn 0.2926 -0.2362 -0.9266
vn 0.2636 -0.2865 -0.9211
vn 0.2348 -0.3364 -0.9120
vn 0.2063 -0.3857 -0.8992
vn 0.1783 -0.4342 -0.8830
vn 0.1509 -0.4817 -0.8632
vn 0.1241 -0.5281 -0.8401
vn 0.0981 -0.5731 -0.8136
vn 0.0730 -0.6166 -0.7839
vn 0.0489 -0.6583 -0.7511
vn 0.0258 -0.6983 -0.7154
vn 0.0040 -0.7362 -0.6768
vn -0.0166 -0.7719 -0.6355
vn -0.0359 -0.8053 -0.5918
vn -0.0538 -0.8362 -0.5457
vn -0.0702 -0.8646 -0.4975
vn -0.0850 -0.8903 -0.4472
vn -0.0982 -0.9133 -0.3953
vn -0.1098 -0.9333 -0.3417
vn -0.1197 -0.9504 -0.2869
vn -0.1278 -0.9645 -0.2309
vn -0.1342 -0.9756 -0.1740
vn -0.1388 -0.9835 -0.1163
vn -0.1415 -0.9882 -0.0583
vn -0.1424 -0.9898 0.0000
vn -0.1415 -0.9882 0.0583
vn -0.1388 -0.9835 0.1163
vn -0.1342 -0.9756 0.1740
vn -0.1278 -0.9645 0.2309
vn -0.1197 -0.9504 0.2869
vn -0.1098 -0.9333 0.3417
vn -0.0982 -0.9133 0.3953
vn -0.0850 -0.8903 0.4472
vn -0.0702 -0.8646 0.4975
vn -0.0538 -0.8362 0.5457
vn -0.0359 -0.8053 0.5918
vn -0.0166 -0.7719 0.6355
vn 0.0040 -0.7362 0.6768
vn 0.0258 -0.6983 0.7154
vn 0.0489 -0.6583 0.7511
vn 0.0730 -0.6166 0.7839
vn 0.0981 -0.5731 0.8136
vn 0.1241 -0.5281 0.8401
vn 0.1509 -0.4817 0.8632
vn 0.1783 -0.4342 0.8830
vn 0.2063 -0.3857 0.8992
vn 0.2348 -0.3364 0.9120
vn 0.2636 -0.2865 0.9211
vn 0.2926 -0.2362 0.9266
vn 0.3218 -0.1858 0.9284
vn 0.3509 -0.1353 0.9266
vn 0.3799 -0.0850 0.9211
vn 0.4087 -0.0351 0.9120
vn 0.4372 0.0142 0.8992
vn 0.4652 0.0627 0.8830
vn 0.4926 0.1102 0.8632
vn 0.5194 0.1566 0.8401
vn 0.5454 0.2015 0.8136
vn 0.5705 0.2450 0.7839
vn 0.5946 0.2868 0.7511
vn 0.6177 0.3267 0.7154
vn 0.6177 0.3267 0.7153
vn 0.6395 0.3646 0.6768
vn 0.6601 0.4003 0.6355
vn 0.6794 0.4337 0.5918
vn 0.6973 0.4647 0.5457
vn 0.7137 0.4931 0.4975
vn 0.7285 0.5188 0.4472
vn 0.7418 0.5417 0.3953
vn 0.7533 0.5618 0.3417
vn 0.7534 0.5618 0.3417
vn 0.7632 0.5789 0.2869
vn 0.7714 0.5930 0.2309
vn 0.7777 0.6040 0.1740
vn 0.7823 0.6119 0.1163
vn 0.7851 0.6167 0.0583
s 1
f 1/1/1 3/2/2 4/3/2
f 4/3/2 5/4/3 6/5/3
f 8/6/4 5/4/3 7/7/4
f 8/6/4 9/8/5 10/9/5
f 10/9/5 11/10/6 12/11/6
f 14/12/7 11/10/6 13/13/7
f 16/14/8 13/13/7 15/15/8
f 16/14/8 17/16/9 18/17/9
f 18/17/9 19/18/10 20/19/10
f 20/19/10 21/20/11 22/21/11
f 22/21/11 23/22/12 24/23/12
f 26/24/13 23/22/12 25/25/13
f 26/24/13 27/26/14 28/27/14
f 28/27/14 29/28/15 30/29/15
f 30/29/15 31/30/16 32/31/16
f 34/32/17 31/30/16 33/33/17
f 34/32/17 35/34/18 36/35/18
f 38/36/19 35/34/18 37/37/19
f 40/38/20 37/37/19 39/39/20
f 40/38/20 41/40/21 42/41/21
f 44/42/22 41/40/21 43/43/22
f 44/42/22 45/44/23 46/45/23
f 48/46/24 45/44/23 47/47/24
f 48/46/24 49/48/25 50/49/25
f 50/49/25 51/50/26 52/51/26
f 52/51/26 53/52/27 54/53/27
f 54/54/27 55/55/28 56/56/28
f 58/57/29 55/55/28 57/58/29
f 58/57/29 59/59/30 60/60/30
f 60/60/30 61/61/31 62/62/31
f 64/63/32 61/61/31 63/64/32
f 66/65/33 63/64/32 65/66/33
f 68/67/34 65/66/33 67/68/34
f 68/67/34 69/69/35 70/70/35
f 70/70/35 71/71/36 72/72/36
f 72/72/36 73/73/37 74/74/37
f 76/75/38 73/73/37 75/76/38
f 76/75/38 77/77/39 78/78/39
f 78/78/39 79/79/40 80/80/40
f 82/81/41 79/79/40 81/82/41
f 82/81/41 83/83/42 84/84/42
f 84/84/42 85/85/43 86/86/43
f 86/86/43 87/87/44 88/88/44
f 88/88/44 89/89/45 90/90/45
f 92/91/46 89/89/45 91/92/46
f 92/91/46 93/93/47 94/94/47
f 94/94/47 95/95/48 96/96/48
f 98/97/49 95/95/48 97/98/49
f 98/97/49 99/99/50 100/100/50
f 100/100/50 101/101/51 102/102/51
f 102/102/51 103/103/52 104/104/52
f 104/104/52 105/105/53 106/106/53
f 108/107/54 105/105/53 107/108/54
f 108/107/54 109/109/55 110/110/55
f 110/110/55 111/111/56 112/112/56
f 114/113/57 111/111/56 113/114/57
f 114/113/57 115/115/58 116/116/58
f 116/116/58 117/117/59 118/118/59
f 120/119/60 117/117/59 119/120/60
f 120/119/60 121/121/61 122/122/61
f 124/123/62 121/121/61 123/124/62
f 124/123/62 125/125/63 126/126/63
f 128/127/64 125/125/63 127/128/64
f 130/129/65 127/128/64 129/130/65
f 130/129/65 131/131/66 132/132/66
f 134/133/67 131/131/66 133/134/67
f 136/135/68 133/134/67 135/136/68
f 138/137/69 135/136/68 137/138/69
f 138/137/69 139/139/70 140/140/70
f 140/140/70 141/141/71 142/142/71
f 144/143/72 141/141/71 143/144/72
f 146/145/73 143/144/72 145/146/73
f 146/145/73 147/147/74 148/148/74
f 150/149/75 147/147/74 149/150/75
f 150/149/75 151/151/76 152/152/76
f 152/152/76 153/153/77 154/154/77
f 156/155/78 153/153/77 155/156/78
f 158/157/79 155/156/78 157/158/79
f 158/157/79 159/159/80 160/160/80
f 162/161/81 159/159/80 161/162/81
f 162/161/81 163/163/82 164/164/82
f 166/165/83 163/163/82 165/166/83
f 166/165/83 167/167/84 168/168/84
f 170/169/85 167/167/84 169/170/85
f 170/169/85 171/171/86 172/172/86
f 172/172/86 173/173/87 174/174/88
f 174/174/88 175/175/89 176/176/89
f 178/177/90 175/175/89 177/178/90
f 180/179/91 177/178/90 179/180/91
f 180/179/91 181/181/92 182/182/92
f 182/182/92 183/183/93 184/184/93
f 186/185/94 183/183/93 185/186/94
f 188/187/95 185/186/94 187/188/95
f 188/187/95 189/189/96 190/190/97
f 192/191/98 189/189/96 191/192/98
f 192/191/98 193/193/99 194/194/99
f 196/195/100 193/193/99 195/196/100
f 198/197/101 195/196/100 197/198/101
f 198/197/101 199/199/102 200/200/102
f 200/200/102 2/201/1 1/1/1
f 1/1/1 2/201/1 3/2/2
f 4/3/2 3/2/2 5/4/3
f 8/6/4 6/5/3 5/4/3
f 8/6/4 7/7/4 9/8/5
f 10/9/5 9/8/5 11/10/6
f 14/12/7 12/11/6 11/10/6
f 16/14/8 14/12/7 13/13/7
f 16/14/8 15/15/8 17/16/9
f 18/17/9 17/16/9 19/18/10
f 20/19/10 19/18/10 21/20/11
f 22/21/11 21/20/11 23/22/12
f 26/24/13 24/23/12 23/22/12
f 26/24/13 25/25/13 27/26/14
f 28/27/14 27/26/14 29/28/15
f 30/29/15 29/28/15 31/30/16
f 34/32/17 32/31/16 31/30/16
f 34/32/17 33/33/17 35/34/18
f 38/36/19 36/35/18 35/34/18
f 40/38/20 38/36/19 37/37/19
f 40/38/20 39/39/20 41/40/21
f 44/42/22 42/41/21 41/40/21
f 44/42/22 43/43/22 45/44/23
f 48/46/24 46/45/23 45/44/23
f 48/46/24 47/47/24 49/48/25
f 50/49/25 49/48/25 51/50/26
f 52/51/26 51/50/26 53/52/27
f 54/54/27 53/202/27 55/55/28
f 58/57/29 56/56/28 55/55/28
f 58/57/29 57/58/29 59/59/30
f 60/60/30 59/59/30 61/61/31
f 64/63/32 62/62/31 61/61/31
f 66/65/33 64/63/32 63/64/32
f 68/67/34 66/65/33 65/66/33
f 68/67/34 67/68/34 69/69/35
f 70/70/35 69/69/35 71/71/36
f 72/72/36 71/71/36 73/73/37
f 76/75/38 74/74/37 73/73/37
f 76/75/38 75/76/38 77/77/39
f 78/78/39 77/77/39 79/79/40
f 82/81/41 80/80/40 79/79/40
f 82/81/41 81/82/41 83/83/42
f 84/84/42 83/83/42 85/85/43
f 86/86/43 85/85/43 87/87/44
f 88/88/44 87/87/44 89/89/45
f 92/91/46 90/90/45 89/89/45
f 92/91/46 91/92/46 93/93/47
f 94/94/47 93/93/47 95/95/48
f 98/97/49 96/96/48 95/95/48
f 98/97/49 97/98/49 99/99/50
f 100/100/50 99/99/50 101/101/51
f 102/102/51 101/101/51 103/103/52
f 104/104/52 103/103/52 105/105/53
f 108/107/54 106/106/53 105/105/53
f 108/107/54 107/108/54 109/109/55
f 110/110/55 109/109/55 111/111/56
f 114/113/57 112/112/56 111/111/56
f 114/113/57 113/114/57 115/115/58
f 116/116/58 115/115/58 117/117/59
f 120/119/60 118/118/59 117/117/59
f 120/119/60 119/120/60 121/121/61
f 124/123/62 122/122/61 121/121/61
f 124/123/62 123/124/62 125/125/63
f 128/127/64 126/126/63 125/125/63
f 130/129/65 128/127/64 127/128/64
f 130/129/65 129/130/65 131/131/66
f 134/133/67 132/132/66 131/131/66
f 136/135/68 134/133/67 133/134/67
f 138/137/69 136/135/68 135/136/68
f 138/137/69 137/138/69 139/139/70
f 140/140/70 139/139/70 141/141/71
f 144/143/72 142/142/71 141/141/71
f 146/145/73 144/143/72 143/144/72
f 146/145/73 145/146/73 147/147/74
f 150/149/75 148/148/74 147/147/74
f 150/149/75 149/150/75 151/151/76
f 152/152/76 151/151/76 153/153/77
f 156/155/78 154/154/77 153/153/77
f 158/157/79 156/155/78 155/156/78
f 158/157/79 157/158/79 159/159/80
f 162/161/81 160/160/80 159/159/80
f 162/161/81 161/162/81 163/163/82
f 166/165/83 164/164/82 163/163/82
f 166/165/83 165/166/83 167/167/84
f 170/169/85 168/168/84 167/167/84
f 170/169/85 169/170/85 171/171/86
f 172/172/86 171/171/86 173/173/87
f 174/174/88 173/173/87 175/175/89
f 178/177/90 176/176/89 175/175/89
f 180/179/91 178/177/90 177/178/90
f 180/179/91 179/180/91 181/181/92
f 182/182/92 181/181/92 183/183/93
f 186/185/94 184/184/93 183/183/93
f 188/187/95 186/185/94 185/186/94
f 188/187/95 187/188/95 189/189/96
f 192/191/98 190/190/97 189/189/96
f 192/191/98 191/192/98 193/193/99
f 196/195/100 194/194/99 193/193/99
f 198/197/101 196/195/100 195/196/100
f 198/197/101 197/198/101 199/199/102
f 200/200/102 199/199/102 2/201/1
